<?xml version="1.0" encoding="UTF-8" standalone="no"?>
<!DOCTYPE svg PUBLIC "-//W3C//DTD SVG 1.1//EN"
 "http://www.w3.org/Graphics/SVG/1.1/DTD/svg11.dtd">
<!-- Generated by graphviz version 2.26.3 (20100126.1600)
 -->
<!-- Title: G Pages: 1 -->
<svg width="444pt" height="886pt"
 viewBox="0.00 0.00 444.00 886.00" xmlns="http://www.w3.org/2000/svg" xmlns:xlink="http://www.w3.org/1999/xlink">
<g id="graph1" class="graph" transform="scale(1 1) rotate(0) translate(4 882)">
<title>G</title>
<polygon fill="white" stroke="white" points="-4,5 -4,-882 441,-882 441,5 -4,5"/>
<g id="graph2" class="cluster"><title>cluster_default</title>
<polyline fill="none" stroke="none" points="292,-8 416,-8 "/>
<path fill="none" stroke="none" d="M416,-8C422,-8 428,-14 428,-20"/>
<polyline fill="none" stroke="none" points="428,-20 428,-858 "/>
<path fill="none" stroke="none" d="M428,-858C428,-864 422,-870 416,-870"/>
<polyline fill="none" stroke="none" points="416,-870 292,-870 "/>
<path fill="none" stroke="none" d="M292,-870C286,-870 280,-864 280,-858"/>
<polyline fill="none" stroke="none" points="280,-858 280,-20 "/>
<path fill="none" stroke="none" d="M280,-20C280,-14 286,-8 292,-8"/>
</g>
<!-- \\sJSONP -->
<g id="node2" class="node"><title>\\sJSONP</title>
<a xlink:href="sJSONP.html" xlink:title="sJSONP" target="_parent">
<polygon fill="none" stroke="black" points="382,-862 326,-862 326,-826 382,-826 382,-862"/>
<text text-anchor="middle" x="354" y="-841.1" font-family="Courier,monospace" font-size="11.00">sJSONP</text>
</a>
</g>
<!-- \\fJSON -->
<g id="node19" class="node"><title>\\fJSON</title>
<ellipse fill="none" stroke="black" cx="108" cy="-846" rx="41.2167" ry="19.0919"/>
<text text-anchor="middle" x="108" y="-842.9" font-family="Times Roman,serif" font-size="14.00" fill="gray">\fJSON</text>
</g>
<!-- \\sJSONP&#45;&gt;\\fJSON -->
<g id="edge3" class="edge"><title>\\sJSONP&#45;&gt;\\fJSON</title>
<path fill="none" stroke="black" d="M325.299,-844.233C284.747,-844.563 210.019,-845.171 159.665,-845.58"/>
<polygon fill="none" stroke="black" points="159.595,-842.08 149.624,-845.662 159.652,-849.08 159.595,-842.08"/>
</g>
<!-- \\sCache -->
<g id="node3" class="node"><title>\\sCache</title>
<a xlink:href="sCache.html" xlink:title="sCache" target="_parent">
<polygon fill="none" stroke="black" points="382,-808 326,-808 326,-772 382,-772 382,-808"/>
<text text-anchor="middle" x="354" y="-787.1" font-family="Courier,monospace" font-size="11.00">sCache</text>
</a>
</g>
<!-- \\fCache -->
<g id="node21" class="node"><title>\\fCache</title>
<ellipse fill="none" stroke="black" cx="108" cy="-790" rx="43.1335" ry="19.0919"/>
<text text-anchor="middle" x="108" y="-786.9" font-family="Times Roman,serif" font-size="14.00" fill="gray">\fCache</text>
</g>
<!-- \\sCache&#45;&gt;\\fCache -->
<g id="edge5" class="edge"><title>\\sCache&#45;&gt;\\fCache</title>
<path fill="none" stroke="black" d="M325.299,-790C285.221,-790 211.762,-790 161.442,-790"/>
<polygon fill="none" stroke="black" points="161.389,-786.5 151.389,-790 161.389,-793.5 161.389,-786.5"/>
</g>
<!-- \\sGrammar -->
<g id="node4" class="node"><title>\\sGrammar</title>
<a xlink:href="sGrammar.html" xlink:title="sGrammar" target="_parent">
<polygon fill="none" stroke="black" points="389,-754 319,-754 319,-718 389,-718 389,-754"/>
<text text-anchor="middle" x="354" y="-733.1" font-family="Courier,monospace" font-size="11.00">sGrammar</text>
</a>
</g>
<!-- \\fGrammar -->
<g id="node23" class="node"><title>\\fGrammar</title>
<ellipse fill="none" stroke="black" cx="108" cy="-734" rx="55.8614" ry="19.0919"/>
<text text-anchor="middle" x="108" y="-730.9" font-family="Times Roman,serif" font-size="14.00" fill="gray">\fGrammar</text>
</g>
<!-- \\sGrammar&#45;&gt;\\fGrammar -->
<g id="edge7" class="edge"><title>\\sGrammar&#45;&gt;\\fGrammar</title>
<path fill="none" stroke="black" d="M318.492,-735.711C281.011,-735.407 221.056,-734.919 174.703,-734.542"/>
<polygon fill="none" stroke="black" points="174.463,-731.04 164.434,-734.459 174.406,-738.04 174.463,-731.04"/>
</g>
<!-- \\sArray -->
<g id="node5" class="node"><title>\\sArray</title>
<a xlink:href="sArray.html" xlink:title="sArray" target="_parent">
<polygon fill="none" stroke="black" points="382,-700 326,-700 326,-664 382,-664 382,-700"/>
<text text-anchor="middle" x="354" y="-679.1" font-family="Courier,monospace" font-size="11.00">sArray</text>
</a>
</g>
<!-- \\sORMJSON -->
<g id="node6" class="node"><title>\\sORMJSON</title>
<a xlink:href="sORMJSON.html" xlink:title="sORMJSON" target="_parent">
<polygon fill="none" stroke="black" points="389,-646 319,-646 319,-610 389,-610 389,-646"/>
<text text-anchor="middle" x="354" y="-625.1" font-family="Courier,monospace" font-size="11.00">sORMJSON</text>
</a>
</g>
<!-- \\fORMJSON -->
<g id="node25" class="node"><title>\\fORMJSON</title>
<ellipse fill="none" stroke="black" cx="108" cy="-629" rx="63.1385" ry="19.0919"/>
<text text-anchor="middle" x="108" y="-625.9" font-family="Times Roman,serif" font-size="14.00" fill="gray">\fORMJSON</text>
</g>
<!-- \\sORMJSON&#45;&gt;\\fORMJSON -->
<g id="edge9" class="edge"><title>\\sORMJSON&#45;&gt;\\fORMJSON</title>
<path fill="none" stroke="black" d="M318.492,-628.144C282.866,-628.289 226.937,-628.517 181.682,-628.7"/>
<polygon fill="none" stroke="black" points="181.597,-625.201 171.611,-628.741 181.625,-632.201 181.597,-625.201"/>
</g>
<!-- \\sProcessException -->
<g id="node7" class="node"><title>\\sProcessException</title>
<a xlink:href="sProcessException.html" xlink:title="sProcessException" target="_parent">
<polygon fill="none" stroke="black" points="419,-592 289,-592 289,-556 419,-556 419,-592"/>
<text text-anchor="middle" x="354" y="-571.1" font-family="Courier,monospace" font-size="11.00">sProcessException</text>
</a>
</g>
<!-- \\fUnexpectedException -->
<g id="node27" class="node"><title>\\fUnexpectedException</title>
<ellipse fill="none" stroke="black" cx="108" cy="-573" rx="106.98" ry="19.0919"/>
<text text-anchor="middle" x="108" y="-569.9" font-family="Times Roman,serif" font-size="14.00" fill="gray">\fUnexpectedException</text>
</g>
<!-- \\sProcessException&#45;&gt;\\fUnexpectedException -->
<g id="edge11" class="edge"><title>\\sProcessException&#45;&gt;\\fUnexpectedException</title>
<path fill="none" stroke="black" d="M288.4,-573.733C269.109,-573.655 247.389,-573.567 225.879,-573.479"/>
<polygon fill="none" stroke="black" points="225.7,-569.979 215.686,-573.438 225.672,-576.978 225.7,-569.979"/>
</g>
<!-- \\sProcess -->
<g id="node8" class="node"><title>\\sProcess</title>
<a xlink:href="sProcess.html" xlink:title="sProcess" target="_parent">
<polygon fill="none" stroke="black" points="389,-538 319,-538 319,-502 389,-502 389,-538"/>
<text text-anchor="middle" x="354" y="-517.1" font-family="Courier,monospace" font-size="11.00">sProcess</text>
</a>
</g>
<!-- \\sLoader -->
<g id="node9" class="node"><title>\\sLoader</title>
<a xlink:href="sLoader.html" xlink:title="sLoader" target="_parent">
<polygon fill="none" stroke="black" points="386,-484 322,-484 322,-448 386,-448 386,-484"/>
<text text-anchor="middle" x="354" y="-463.1" font-family="Courier,monospace" font-size="11.00">sLoader</text>
</a>
</g>
<!-- \\fLoader -->
<g id="node29" class="node"><title>\\fLoader</title>
<ellipse fill="none" stroke="black" cx="108" cy="-466" rx="46.1672" ry="19.0919"/>
<text text-anchor="middle" x="108" y="-462.9" font-family="Times Roman,serif" font-size="14.00" fill="gray">\fLoader</text>
</g>
<!-- \\sLoader&#45;&gt;\\fLoader -->
<g id="edge13" class="edge"><title>\\sLoader&#45;&gt;\\fLoader</title>
<path fill="none" stroke="black" d="M321.84,-466C282.08,-466 213.709,-466 164.982,-466"/>
<polygon fill="none" stroke="black" points="164.9,-462.5 154.9,-466 164.9,-469.5 164.9,-462.5"/>
</g>
<!-- \\sTemplate -->
<g id="node10" class="node"><title>\\sTemplate</title>
<a xlink:href="sTemplate.html" xlink:title="sTemplate" target="_parent">
<polygon fill="none" stroke="black" points="392,-430 316,-430 316,-394 392,-394 392,-430"/>
<text text-anchor="middle" x="354" y="-409.1" font-family="Courier,monospace" font-size="11.00">sTemplate</text>
</a>
</g>
<!-- \\sNumber -->
<g id="node11" class="node"><title>\\sNumber</title>
<a xlink:href="sNumber.html" xlink:title="sNumber" target="_parent">
<polygon fill="none" stroke="black" points="386,-376 322,-376 322,-340 386,-340 386,-376"/>
<text text-anchor="middle" x="354" y="-355.1" font-family="Courier,monospace" font-size="11.00">sNumber</text>
</a>
</g>
<!-- \\fNumber -->
<g id="node31" class="node"><title>\\fNumber</title>
<ellipse fill="none" stroke="black" cx="108" cy="-363" rx="50.2046" ry="19.0919"/>
<text text-anchor="middle" x="108" y="-359.9" font-family="Times Roman,serif" font-size="14.00" fill="gray">\fNumber</text>
</g>
<!-- \\sNumber&#45;&gt;\\fNumber -->
<g id="edge15" class="edge"><title>\\sNumber&#45;&gt;\\fNumber</title>
<path fill="none" stroke="black" d="M321.84,-358.654C282.932,-359.444 216.623,-360.792 168.138,-361.778"/>
<polygon fill="none" stroke="black" points="168.005,-358.28 158.078,-361.982 168.147,-365.278 168.005,-358.28"/>
</g>
<!-- \\sRequest -->
<g id="node12" class="node"><title>\\sRequest</title>
<a xlink:href="sRequest.html" xlink:title="sRequest" target="_parent">
<polygon fill="none" stroke="black" points="389,-322 319,-322 319,-286 389,-286 389,-322"/>
<text text-anchor="middle" x="354" y="-301.1" font-family="Courier,monospace" font-size="11.00">sRequest</text>
</a>
</g>
<!-- \\fRequest -->
<g id="node33" class="node"><title>\\fRequest</title>
<ellipse fill="none" stroke="black" cx="108" cy="-307" rx="50.2046" ry="19.0919"/>
<text text-anchor="middle" x="108" y="-303.9" font-family="Times Roman,serif" font-size="14.00" fill="gray">\fRequest</text>
</g>
<!-- \\sRequest&#45;&gt;\\fRequest -->
<g id="edge17" class="edge"><title>\\sRequest&#45;&gt;\\fRequest</title>
<path fill="none" stroke="black" d="M318.492,-304.433C279.197,-304.912 215.199,-305.693 168.071,-306.267"/>
<polygon fill="none" stroke="black" points="167.943,-302.769 157.986,-306.39 168.028,-309.768 167.943,-302.769"/>
</g>
<!-- \\sImage -->
<g id="node13" class="node"><title>\\sImage</title>
<a xlink:href="sImage.html" xlink:title="sImage" target="_parent">
<polygon fill="none" stroke="black" points="382,-268 326,-268 326,-232 382,-232 382,-268"/>
<text text-anchor="middle" x="354" y="-247.1" font-family="Courier,monospace" font-size="11.00">sImage</text>
</a>
</g>
<!-- \\fImage -->
<g id="node35" class="node"><title>\\fImage</title>
<ellipse fill="none" stroke="black" cx="108" cy="-251" rx="43.1335" ry="19.0919"/>
<text text-anchor="middle" x="108" y="-247.9" font-family="Times Roman,serif" font-size="14.00" fill="gray">\fImage</text>
</g>
<!-- \\sImage&#45;&gt;\\fImage -->
<g id="edge19" class="edge"><title>\\sImage&#45;&gt;\\fImage</title>
<path fill="none" stroke="black" d="M325.299,-250.117C285.221,-250.28 211.762,-250.578 161.442,-250.783"/>
<polygon fill="none" stroke="black" points="161.375,-247.283 151.389,-250.824 161.403,-254.283 161.375,-247.283"/>
</g>
<!-- \\sTimestamp -->
<g id="node14" class="node"><title>\\sTimestamp</title>
<a xlink:href="sTimestamp.html" xlink:title="sTimestamp" target="_parent">
<polygon fill="none" stroke="black" points="396,-214 312,-214 312,-178 396,-178 396,-214"/>
<text text-anchor="middle" x="354" y="-193.1" font-family="Courier,monospace" font-size="11.00">sTimestamp</text>
</a>
</g>
<!-- \\fTimestamp -->
<g id="node37" class="node"><title>\\fTimestamp</title>
<ellipse fill="none" stroke="black" cx="108" cy="-195" rx="62.9325" ry="19.0919"/>
<text text-anchor="middle" x="108" y="-191.9" font-family="Times Roman,serif" font-size="14.00" fill="gray">\fTimestamp</text>
</g>
<!-- \\sTimestamp&#45;&gt;\\fTimestamp -->
<g id="edge21" class="edge"><title>\\sTimestamp&#45;&gt;\\fTimestamp</title>
<path fill="none" stroke="black" d="M311.991,-195.829C276.165,-195.684 223.836,-195.471 181.15,-195.297"/>
<polygon fill="none" stroke="black" points="181.097,-191.797 171.083,-195.256 181.068,-198.797 181.097,-191.797"/>
</g>
<!-- \\sHTML -->
<g id="node15" class="node"><title>\\sHTML</title>
<a xlink:href="sHTML.html" xlink:title="sHTML" target="_parent">
<polygon fill="none" stroke="black" points="381,-160 327,-160 327,-124 381,-124 381,-160"/>
<text text-anchor="middle" x="354" y="-139.1" font-family="Courier,monospace" font-size="11.00">sHTML</text>
</a>
</g>
<!-- \\fHTML -->
<g id="node39" class="node"><title>\\fHTML</title>
<ellipse fill="none" stroke="black" cx="108" cy="-139" rx="45.9619" ry="19.0919"/>
<text text-anchor="middle" x="108" y="-135.9" font-family="Times Roman,serif" font-size="14.00" fill="gray">\fHTML</text>
</g>
<!-- \\sHTML&#45;&gt;\\fHTML -->
<g id="edge23" class="edge"><title>\\sHTML&#45;&gt;\\fHTML</title>
<path fill="none" stroke="black" d="M326.734,-141.667C287.762,-141.192 215.233,-140.308 164.413,-139.688"/>
<polygon fill="none" stroke="black" points="164.279,-136.186 154.237,-139.564 164.193,-143.186 164.279,-136.186"/>
</g>
<!-- \\sAuthorization -->
<g id="node16" class="node"><title>\\sAuthorization</title>
<a xlink:href="sAuthorization.html" xlink:title="sAuthorization" target="_parent">
<polygon fill="none" stroke="black" points="409,-106 299,-106 299,-70 409,-70 409,-106"/>
<text text-anchor="middle" x="354" y="-85.1" font-family="Courier,monospace" font-size="11.00">sAuthorization</text>
</a>
</g>
<!-- \\fAuthorization -->
<g id="node41" class="node"><title>\\fAuthorization</title>
<ellipse fill="none" stroke="black" cx="108" cy="-83" rx="72.832" ry="19.0919"/>
<text text-anchor="middle" x="108" y="-79.9" font-family="Times Roman,serif" font-size="14.00" fill="gray">\fAuthorization</text>
</g>
<!-- \\sAuthorization&#45;&gt;\\fAuthorization -->
<g id="edge25" class="edge"><title>\\sAuthorization&#45;&gt;\\fAuthorization</title>
<path fill="none" stroke="black" d="M298.486,-86.8717C266.887,-86.2294 226.68,-85.4122 191.358,-84.6943"/>
<polygon fill="none" stroke="black" points="191.122,-81.1888 181.053,-84.4848 190.98,-88.1874 191.122,-81.1888"/>
</g>
<!-- \\sResponse -->
<g id="node17" class="node"><title>\\sResponse</title>
<a xlink:href="sResponse.html" xlink:title="sResponse" target="_parent">
<polygon fill="none" stroke="black" points="392,-52 316,-52 316,-16 392,-16 392,-52"/>
<text text-anchor="middle" x="354" y="-31.1" font-family="Courier,monospace" font-size="11.00">sResponse</text>
</a>
</g>
</g>
</svg>
