<?xml version="1.0" encoding="UTF-8" standalone="no"?>
<!DOCTYPE svg PUBLIC "-//W3C//DTD SVG 1.1//EN"
 "http://www.w3.org/Graphics/SVG/1.1/DTD/svg11.dtd">
<!-- Generated by graphviz version 2.26.3 (20100126.1600)
 -->
<!-- Title: G Pages: 1 -->
<svg width="792pt" height="3805pt"
 viewBox="0.00 0.00 792.00 3804.77" xmlns="http://www.w3.org/2000/svg" xmlns:xlink="http://www.w3.org/1999/xlink">
<g id="graph1" class="graph" transform="scale(1 1) rotate(0) translate(4 3800.77)">
<title>G</title>
<polygon fill="white" stroke="white" points="-4,5 -4,-3800.77 789,-3800.77 789,5 -4,5"/>
<g id="graph2" class="cluster"><title>cluster_default</title>
<polyline fill="none" stroke="none" points="192,-46 764,-46 "/>
<path fill="none" stroke="none" d="M764,-46C770,-46 776,-52 776,-58"/>
<polyline fill="none" stroke="none" points="776,-58 776,-3704 "/>
<path fill="none" stroke="none" d="M776,-3704C776,-3710 770,-3716 764,-3716"/>
<polyline fill="none" stroke="none" points="764,-3716 192,-3716 "/>
<path fill="none" stroke="none" d="M192,-3716C186,-3716 180,-3710 180,-3704"/>
<polyline fill="none" stroke="none" points="180,-3704 180,-58 "/>
<path fill="none" stroke="none" d="M180,-58C180,-52 186,-46 192,-46"/>
</g>
<!-- \\sJSONP -->
<g id="node2" class="node"><title>\\sJSONP</title>
<a xlink:href="sutra.classes.sJSONP.html" xlink:title="sJSONP" target="_parent">
<polygon fill="none" stroke="black" points="710,-3492 654,-3492 654,-3456 710,-3456 710,-3492"/>
<text text-anchor="middle" x="682" y="-3471.1" font-family="Courier,monospace" font-size="11.00">sJSONP</text>
</a>
</g>
<!-- \\fJSON -->
<g id="node58" class="node"><title>\\fJSON</title>
<a xlink:href="php.flourish.fJSON.html" xlink:title="fJSON" target="_parent">
<polygon fill="none" stroke="black" points="462,-3492 408,-3492 408,-3456 462,-3456 462,-3492"/>
<text text-anchor="middle" x="435" y="-3471.1" font-family="Courier,monospace" font-size="11.00">fJSON</text>
</a>
</g>
<!-- \\sJSONP&#45;&gt;\\fJSON -->
<g id="edge3" class="edge"><title>\\sJSONP&#45;&gt;\\fJSON</title>
<path fill="none" stroke="black" d="M653.183,-3474C608.368,-3474 521.982,-3474 472.413,-3474"/>
<polygon fill="none" stroke="black" points="472.127,-3470.5 462.127,-3474 472.127,-3477.5 472.127,-3470.5"/>
</g>
<!-- \\sCache -->
<g id="node3" class="node"><title>\\sCache</title>
<a xlink:href="sutra.classes.sCache.html" xlink:title="sCache" target="_parent">
<polygon fill="none" stroke="black" points="710,-3438 654,-3438 654,-3402 710,-3402 710,-3438"/>
<text text-anchor="middle" x="682" y="-3417.1" font-family="Courier,monospace" font-size="11.00">sCache</text>
</a>
</g>
<!-- \\fCache -->
<g id="node35" class="node"><title>\\fCache</title>
<a xlink:href="php.flourish.fCache.html" xlink:title="fCache" target="_parent">
<polygon fill="none" stroke="black" points="463,-3438 407,-3438 407,-3402 463,-3402 463,-3438"/>
<text text-anchor="middle" x="435" y="-3417.1" font-family="Courier,monospace" font-size="11.00">fCache</text>
</a>
</g>
<!-- \\sCache&#45;&gt;\\fCache -->
<g id="edge5" class="edge"><title>\\sCache&#45;&gt;\\fCache</title>
<path fill="none" stroke="black" d="M653.183,-3420C608.749,-3420 523.449,-3420 473.686,-3420"/>
<polygon fill="none" stroke="black" points="473.634,-3416.5 463.634,-3420 473.634,-3423.5 473.634,-3416.5"/>
</g>
<!-- \\sGrammar -->
<g id="node4" class="node"><title>\\sGrammar</title>
<a xlink:href="sutra.classes.sGrammar.html" xlink:title="sGrammar" target="_parent">
<polygon fill="none" stroke="black" points="717,-3330 647,-3330 647,-3294 717,-3294 717,-3330"/>
<text text-anchor="middle" x="682" y="-3309.1" font-family="Courier,monospace" font-size="11.00">sGrammar</text>
</a>
</g>
<!-- \\fGrammar -->
<g id="node37" class="node"><title>\\fGrammar</title>
<a xlink:href="php.flourish.fGrammar.html" xlink:title="fGrammar" target="_parent">
<polygon fill="none" stroke="black" points="470,-3330 400,-3330 400,-3294 470,-3294 470,-3330"/>
<text text-anchor="middle" x="435" y="-3309.1" font-family="Courier,monospace" font-size="11.00">fGrammar</text>
</a>
</g>
<!-- \\sGrammar&#45;&gt;\\fGrammar -->
<g id="edge7" class="edge"><title>\\sGrammar&#45;&gt;\\fGrammar</title>
<path fill="none" stroke="black" d="M646.348,-3312C602.661,-3312 528.566,-3312 480.726,-3312"/>
<polygon fill="none" stroke="black" points="480.641,-3308.5 470.641,-3312 480.641,-3315.5 480.641,-3308.5"/>
</g>
<!-- \\sArray -->
<g id="node5" class="node"><title>\\sArray</title>
<a xlink:href="sutra.classes.sArray.html" xlink:title="sArray" target="_parent">
<polygon fill="none" stroke="black" points="710,-3546 654,-3546 654,-3510 710,-3510 710,-3546"/>
<text text-anchor="middle" x="682" y="-3525.1" font-family="Courier,monospace" font-size="11.00">sArray</text>
</a>
</g>
<!-- \\sORMJSON -->
<g id="node6" class="node"><title>\\sORMJSON</title>
<a xlink:href="sutra.classes.sORMJSON.html" xlink:title="sORMJSON" target="_parent">
<polygon fill="none" stroke="black" points="717,-3222 647,-3222 647,-3186 717,-3186 717,-3222"/>
<text text-anchor="middle" x="682" y="-3201.1" font-family="Courier,monospace" font-size="11.00">sORMJSON</text>
</a>
</g>
<!-- \\fORMJSON -->
<g id="node68" class="node"><title>\\fORMJSON</title>
<a xlink:href="php.flourish.fORMJSON.html" xlink:title="fORMJSON" target="_parent">
<polygon fill="none" stroke="black" points="470,-3222 400,-3222 400,-3186 470,-3186 470,-3222"/>
<text text-anchor="middle" x="435" y="-3201.1" font-family="Courier,monospace" font-size="11.00">fORMJSON</text>
</a>
</g>
<!-- \\sORMJSON&#45;&gt;\\fORMJSON -->
<g id="edge9" class="edge"><title>\\sORMJSON&#45;&gt;\\fORMJSON</title>
<path fill="none" stroke="black" d="M646.348,-3204C602.661,-3204 528.566,-3204 480.726,-3204"/>
<polygon fill="none" stroke="black" points="480.641,-3200.5 470.641,-3204 480.641,-3207.5 480.641,-3200.5"/>
</g>
<!-- \\sProcessException -->
<g id="node7" class="node"><title>\\sProcessException</title>
<a xlink:href="sutra.classes.sProcessException.html" xlink:title="sProcessException" target="_parent">
<polygon fill="none" stroke="black" points="747,-522 617,-522 617,-486 747,-486 747,-522"/>
<text text-anchor="middle" x="682" y="-501.1" font-family="Courier,monospace" font-size="11.00">sProcessException</text>
</a>
</g>
<!-- \\fUnexpectedException -->
<g id="node19" class="node"><title>\\fUnexpectedException</title>
<a xlink:href="php.flourish.fUnexpectedException.html" xlink:title="fUnexpectedException" target="_parent">
<polygon fill="none" stroke="black" points="511,-657 359,-657 359,-621 511,-621 511,-657"/>
<text text-anchor="middle" x="435" y="-636.1" font-family="Courier,monospace" font-size="11.00">fUnexpectedException</text>
</a>
</g>
<!-- \\sProcessException&#45;&gt;\\fUnexpectedException -->
<g id="edge11" class="edge"><title>\\sProcessException&#45;&gt;\\fUnexpectedException</title>
<path fill="none" stroke="black" d="M616.306,-520.244C609.173,-523.27 602.246,-526.827 596,-531 554.55,-558.692 566.286,-590.603 524,-617 522.734,-617.79 521.442,-618.552 520.126,-619.286"/>
<polygon fill="none" stroke="black" points="518.547,-616.163 511.149,-623.747 521.662,-622.431 518.547,-616.163"/>
</g>
<!-- \\sProcess -->
<g id="node8" class="node"><title>\\sProcess</title>
<a xlink:href="sutra.classes.sProcess.html" xlink:title="sProcess" target="_parent">
<polygon fill="none" stroke="black" points="717,-3384 647,-3384 647,-3348 717,-3348 717,-3384"/>
<text text-anchor="middle" x="682" y="-3363.1" font-family="Courier,monospace" font-size="11.00">sProcess</text>
</a>
</g>
<!-- \\sLoader -->
<g id="node9" class="node"><title>\\sLoader</title>
<a xlink:href="sutra.classes.sLoader.html" xlink:title="sLoader" target="_parent">
<polygon fill="none" stroke="black" points="714,-3168 650,-3168 650,-3132 714,-3132 714,-3168"/>
<text text-anchor="middle" x="682" y="-3147.1" font-family="Courier,monospace" font-size="11.00">sLoader</text>
</a>
</g>
<!-- \\fLoader -->
<g id="node71" class="node"><title>\\fLoader</title>
<a xlink:href="php.flourish.fLoader.html" xlink:title="fLoader" target="_parent">
<polygon fill="none" stroke="black" points="467,-3168 403,-3168 403,-3132 467,-3132 467,-3168"/>
<text text-anchor="middle" x="435" y="-3147.1" font-family="Courier,monospace" font-size="11.00">fLoader</text>
</a>
</g>
<!-- \\sLoader&#45;&gt;\\fLoader -->
<g id="edge13" class="edge"><title>\\sLoader&#45;&gt;\\fLoader</title>
<path fill="none" stroke="black" d="M649.962,-3150C605.94,-3150 526.644,-3150 477.644,-3150"/>
<polygon fill="none" stroke="black" points="477.373,-3146.5 467.373,-3150 477.373,-3153.5 477.373,-3146.5"/>
</g>
<!-- \\sTemplate -->
<g id="node10" class="node"><title>\\sTemplate</title>
<a xlink:href="sutra.classes.sTemplate.html" xlink:title="sTemplate" target="_parent">
<polygon fill="none" stroke="black" points="720,-3276 644,-3276 644,-3240 720,-3240 720,-3276"/>
<text text-anchor="middle" x="682" y="-3255.1" font-family="Courier,monospace" font-size="11.00">sTemplate</text>
</a>
</g>
<!-- \\sNumber -->
<g id="node11" class="node"><title>\\sNumber</title>
<a xlink:href="sutra.classes.sNumber.html" xlink:title="sNumber" target="_parent">
<polygon fill="none" stroke="black" points="714,-3114 650,-3114 650,-3078 714,-3078 714,-3114"/>
<text text-anchor="middle" x="682" y="-3093.1" font-family="Courier,monospace" font-size="11.00">sNumber</text>
</a>
</g>
<!-- \\fNumber -->
<g id="node80" class="node"><title>\\fNumber</title>
<a xlink:href="php.flourish.fNumber.html" xlink:title="fNumber" target="_parent">
<polygon fill="none" stroke="black" points="467,-3114 403,-3114 403,-3078 467,-3078 467,-3114"/>
<text text-anchor="middle" x="435" y="-3093.1" font-family="Courier,monospace" font-size="11.00">fNumber</text>
</a>
</g>
<!-- \\sNumber&#45;&gt;\\fNumber -->
<g id="edge15" class="edge"><title>\\sNumber&#45;&gt;\\fNumber</title>
<path fill="none" stroke="black" d="M649.962,-3096C605.94,-3096 526.644,-3096 477.644,-3096"/>
<polygon fill="none" stroke="black" points="477.373,-3092.5 467.373,-3096 477.373,-3099.5 477.373,-3092.5"/>
</g>
<!-- \\sRequest -->
<g id="node12" class="node"><title>\\sRequest</title>
<a xlink:href="sutra.classes.sRequest.html" xlink:title="sRequest" target="_parent">
<polygon fill="none" stroke="black" points="717,-3060 647,-3060 647,-3024 717,-3024 717,-3060"/>
<text text-anchor="middle" x="682" y="-3039.1" font-family="Courier,monospace" font-size="11.00">sRequest</text>
</a>
</g>
<!-- \\fRequest -->
<g id="node48" class="node"><title>\\fRequest</title>
<a xlink:href="php.flourish.fRequest.html" xlink:title="fRequest" target="_parent">
<polygon fill="none" stroke="black" points="470,-3060 400,-3060 400,-3024 470,-3024 470,-3060"/>
<text text-anchor="middle" x="435" y="-3039.1" font-family="Courier,monospace" font-size="11.00">fRequest</text>
</a>
</g>
<!-- \\sRequest&#45;&gt;\\fRequest -->
<g id="edge17" class="edge"><title>\\sRequest&#45;&gt;\\fRequest</title>
<path fill="none" stroke="black" d="M646.348,-3042C602.661,-3042 528.566,-3042 480.726,-3042"/>
<polygon fill="none" stroke="black" points="480.641,-3038.5 470.641,-3042 480.641,-3045.5 480.641,-3038.5"/>
</g>
<!-- \\sImage -->
<g id="node13" class="node"><title>\\sImage</title>
<a xlink:href="sutra.classes.sImage.html" xlink:title="sImage" target="_parent">
<polygon fill="none" stroke="black" points="710,-3006 654,-3006 654,-2970 710,-2970 710,-3006"/>
<text text-anchor="middle" x="682" y="-2985.1" font-family="Courier,monospace" font-size="11.00">sImage</text>
</a>
</g>
<!-- \\fImage -->
<g id="node57" class="node"><title>\\fImage</title>
<a xlink:href="php.flourish.fImage.html" xlink:title="fImage" target="_parent">
<polygon fill="none" stroke="black" points="463,-3006 407,-3006 407,-2970 463,-2970 463,-3006"/>
<text text-anchor="middle" x="435" y="-2985.1" font-family="Courier,monospace" font-size="11.00">fImage</text>
</a>
</g>
<!-- \\sImage&#45;&gt;\\fImage -->
<g id="edge19" class="edge"><title>\\sImage&#45;&gt;\\fImage</title>
<path fill="none" stroke="black" d="M653.183,-2988C608.749,-2988 523.449,-2988 473.686,-2988"/>
<polygon fill="none" stroke="black" points="473.634,-2984.5 463.634,-2988 473.634,-2991.5 473.634,-2984.5"/>
</g>
<!-- \\sTimestamp -->
<g id="node14" class="node"><title>\\sTimestamp</title>
<a xlink:href="sutra.classes.sTimestamp.html" xlink:title="sTimestamp" target="_parent">
<polygon fill="none" stroke="black" points="724,-2952 640,-2952 640,-2916 724,-2916 724,-2952"/>
<text text-anchor="middle" x="682" y="-2931.1" font-family="Courier,monospace" font-size="11.00">sTimestamp</text>
</a>
</g>
<!-- \\fTimestamp -->
<g id="node73" class="node"><title>\\fTimestamp</title>
<a xlink:href="php.flourish.fTimestamp.html" xlink:title="fTimestamp" target="_parent">
<polygon fill="none" stroke="black" points="477,-2952 393,-2952 393,-2916 477,-2916 477,-2952"/>
<text text-anchor="middle" x="435" y="-2931.1" font-family="Courier,monospace" font-size="11.00">fTimestamp</text>
</a>
</g>
<!-- \\sTimestamp&#45;&gt;\\fTimestamp -->
<g id="edge21" class="edge"><title>\\sTimestamp&#45;&gt;\\fTimestamp</title>
<path fill="none" stroke="black" d="M639.82,-2934C597.637,-2934 532.667,-2934 487.245,-2934"/>
<polygon fill="none" stroke="black" points="487.006,-2930.5 477.006,-2934 487.006,-2937.5 487.006,-2930.5"/>
</g>
<!-- \\sHTML -->
<g id="node15" class="node"><title>\\sHTML</title>
<a xlink:href="sutra.classes.sHTML.html" xlink:title="sHTML" target="_parent">
<polygon fill="none" stroke="black" points="709,-2790 655,-2790 655,-2754 709,-2754 709,-2790"/>
<text text-anchor="middle" x="682" y="-2769.1" font-family="Courier,monospace" font-size="11.00">sHTML</text>
</a>
</g>
<!-- \\fHTML -->
<g id="node25" class="node"><title>\\fHTML</title>
<a xlink:href="php.flourish.fHTML.html" xlink:title="fHTML" target="_parent">
<polygon fill="none" stroke="black" points="462,-2790 408,-2790 408,-2754 462,-2754 462,-2790"/>
<text text-anchor="middle" x="435" y="-2769.1" font-family="Courier,monospace" font-size="11.00">fHTML</text>
</a>
</g>
<!-- \\sHTML&#45;&gt;\\fHTML -->
<g id="edge23" class="edge"><title>\\sHTML&#45;&gt;\\fHTML</title>
<path fill="none" stroke="black" d="M654.623,-2772C610.18,-2772 522.275,-2772 472.204,-2772"/>
<polygon fill="none" stroke="black" points="472.123,-2768.5 462.123,-2772 472.123,-2775.5 472.123,-2768.5"/>
</g>
<!-- \\sAuthorization -->
<g id="node16" class="node"><title>\\sAuthorization</title>
<a xlink:href="sutra.classes.sAuthorization.html" xlink:title="sAuthorization" target="_parent">
<polygon fill="none" stroke="black" points="737,-2304 627,-2304 627,-2268 737,-2268 737,-2304"/>
<text text-anchor="middle" x="682" y="-2283.1" font-family="Courier,monospace" font-size="11.00">sAuthorization</text>
</a>
</g>
<!-- \\fAuthorization -->
<g id="node46" class="node"><title>\\fAuthorization</title>
<a xlink:href="php.flourish.fAuthorization.html" xlink:title="fAuthorization" target="_parent">
<polygon fill="none" stroke="black" points="490,-2304 380,-2304 380,-2268 490,-2268 490,-2304"/>
<text text-anchor="middle" x="435" y="-2283.1" font-family="Courier,monospace" font-size="11.00">fAuthorization</text>
</a>
</g>
<!-- \\sAuthorization&#45;&gt;\\fAuthorization -->
<g id="edge25" class="edge"><title>\\sAuthorization&#45;&gt;\\fAuthorization</title>
<path fill="none" stroke="black" d="M626.26,-2286C589.036,-2286 539.915,-2286 500.775,-2286"/>
<polygon fill="none" stroke="black" points="500.537,-2282.5 490.537,-2286 500.537,-2289.5 500.537,-2282.5"/>
</g>
<!-- \\sResponse -->
<g id="node17" class="node"><title>\\sResponse</title>
<a xlink:href="sutra.classes.sResponse.html" xlink:title="sResponse" target="_parent">
<polygon fill="none" stroke="black" points="720,-2898 644,-2898 644,-2862 720,-2862 720,-2898"/>
<text text-anchor="middle" x="682" y="-2877.1" font-family="Courier,monospace" font-size="11.00">sResponse</text>
</a>
</g>
<!-- \\fException -->
<g id="node18" class="node"><title>\\fException</title>
<a xlink:href="php.flourish.fException.html" xlink:title="«abstract»&lt;br/&gt;fException" target="_parent">
<polygon fill="none" stroke="black" points="273,-1089 189,-1089 189,-1053 273,-1053 273,-1089"/>
<text text-anchor="start" x="197" y="-1076.43" font-family="Courier,monospace" font-size="11.00">«abstract»</text>
<text text-anchor="start" x="197" y="-1063.23" font-family="Courier,monospace" font-size="11.00">fException</text>
</a>
</g>
<!-- \\Exception -->
<g id="node98" class="node"><title>\\Exception</title>
<ellipse fill="none" stroke="black" cx="58" cy="-1071" rx="55.1543" ry="19.0919"/>
<text text-anchor="middle" x="58" y="-1067.9" font-family="Times Roman,serif" font-size="14.00" fill="gray">\Exception</text>
</g>
<!-- \\fException&#45;&gt;\\Exception -->
<g id="edge27" class="edge"><title>\\fException&#45;&gt;\\Exception</title>
<path fill="none" stroke="black" d="M188.236,-1071C168.628,-1071 144.951,-1071 123.192,-1071"/>
<polygon fill="none" stroke="black" points="123.022,-1067.5 113.022,-1071 123.022,-1074.5 123.022,-1067.5"/>
</g>
<!-- \\fUnexpectedException&#45;&gt;\\fException -->
<g id="edge29" class="edge"><title>\\fUnexpectedException&#45;&gt;\\fException</title>
<path fill="none" stroke="black" d="M432.494,-657.367C423.287,-718.539 386.202,-918.432 276.955,-1045.03"/>
<polygon fill="none" stroke="black" points="274.009,-1043.08 269.997,-1052.89 279.248,-1047.72 274.009,-1043.08"/>
</g>
<!-- \\fURL -->
<g id="node20" class="node"><title>\\fURL</title>
<a xlink:href="php.flourish.fURL.html" xlink:title="fURL" target="_parent">
<polygon fill="none" stroke="black" points="709,-2844 655,-2844 655,-2808 709,-2808 709,-2844"/>
<text text-anchor="middle" x="682" y="-2823.1" font-family="Courier,monospace" font-size="11.00">fURL</text>
</a>
</g>
<!-- \\fXML -->
<g id="node21" class="node"><title>\\fXML</title>
<a xlink:href="php.flourish.fXML.html" xlink:title="fXML" target="_parent">
<polygon fill="none" stroke="black" points="709,-3600 655,-3600 655,-3564 709,-3564 709,-3600"/>
<text text-anchor="middle" x="682" y="-3579.1" font-family="Courier,monospace" font-size="11.00">fXML</text>
</a>
</g>
<!-- \\ArrayAccess -->
<g id="node113" class="node"><title>\\ArrayAccess</title>
<ellipse fill="none" stroke="black" cx="435" cy="-3743" rx="68.7979" ry="19.0919"/>
<text text-anchor="middle" x="435" y="-3739.9" font-family="Times Roman,serif" font-size="14.00" fill="gray">\\ArrayAccess</text>
</g>
<!-- \\fXML&#45;&gt;\\ArrayAccess -->
<g id="edge55" class="edge"><title>\\fXML&#45;&gt;\\ArrayAccess</title>
<path fill="none" stroke="black" stroke-dasharray="1,5" d="M654.989,-3585.59C636.842,-3589.11 613.195,-3595.93 596,-3609 549.181,-3644.58 571.717,-3685.64 524,-3720 518.431,-3724.01 512.222,-3727.32 505.745,-3730.06"/>
<polygon fill="none" stroke="black" points="504.245,-3726.88 496.107,-3733.67 506.7,-3733.44 504.245,-3726.88"/>
</g>
<!-- \\fValidation -->
<g id="node22" class="node"><title>\\fValidation</title>
<a xlink:href="php.flourish.fValidation.html" xlink:title="fValidation" target="_parent">
<polygon fill="none" stroke="black" points="727,-2736 637,-2736 637,-2700 727,-2700 727,-2736"/>
<text text-anchor="middle" x="682" y="-2715.1" font-family="Courier,monospace" font-size="11.00">fValidation</text>
</a>
</g>
<!-- \\fCore -->
<g id="node23" class="node"><title>\\fCore</title>
<a xlink:href="php.flourish.fCore.html" xlink:title="fCore" target="_parent">
<polygon fill="none" stroke="black" points="709,-2682 655,-2682 655,-2646 709,-2646 709,-2682"/>
<text text-anchor="middle" x="682" y="-2661.1" font-family="Courier,monospace" font-size="11.00">fCore</text>
</a>
</g>
<!-- \\fSession -->
<g id="node24" class="node"><title>\\fSession</title>
<a xlink:href="php.flourish.fSession.html" xlink:title="fSession" target="_parent">
<polygon fill="none" stroke="black" points="717,-2628 647,-2628 647,-2592 717,-2592 717,-2628"/>
<text text-anchor="middle" x="682" y="-2607.1" font-family="Courier,monospace" font-size="11.00">fSession</text>
</a>
</g>
<!-- \\fORMColumn -->
<g id="node26" class="node"><title>\\fORMColumn</title>
<a xlink:href="php.flourish.fORMColumn.html" xlink:title="fORMColumn" target="_parent">
<polygon fill="none" stroke="black" points="724,-2574 640,-2574 640,-2538 724,-2538 724,-2574"/>
<text text-anchor="middle" x="682" y="-2553.1" font-family="Courier,monospace" font-size="11.00">fORMColumn</text>
</a>
</g>
<!-- \\fText -->
<g id="node27" class="node"><title>\\fText</title>
<a xlink:href="php.flourish.fText.html" xlink:title="fText" target="_parent">
<polygon fill="none" stroke="black" points="709,-2520 655,-2520 655,-2484 709,-2484 709,-2520"/>
<text text-anchor="middle" x="682" y="-2499.1" font-family="Courier,monospace" font-size="11.00">fText</text>
</a>
</g>
<!-- \\fFilesystem -->
<g id="node28" class="node"><title>\\fFilesystem</title>
<a xlink:href="php.flourish.fFilesystem.html" xlink:title="fFilesystem" target="_parent">
<polygon fill="none" stroke="black" points="727,-2466 637,-2466 637,-2430 727,-2430 727,-2466"/>
<text text-anchor="middle" x="682" y="-2445.1" font-family="Courier,monospace" font-size="11.00">fFilesystem</text>
</a>
</g>
<!-- \\fPagination -->
<g id="node29" class="node"><title>\\fPagination</title>
<a xlink:href="php.flourish.fPagination.html" xlink:title="fPagination" target="_parent">
<polygon fill="none" stroke="black" points="727,-2412 637,-2412 637,-2376 727,-2376 727,-2412"/>
<text text-anchor="middle" x="682" y="-2391.1" font-family="Courier,monospace" font-size="11.00">fPagination</text>
</a>
</g>
<!-- \\fUpload -->
<g id="node30" class="node"><title>\\fUpload</title>
<a xlink:href="php.flourish.fUpload.html" xlink:title="fUpload" target="_parent">
<polygon fill="none" stroke="black" points="714,-2358 650,-2358 650,-2322 714,-2322 714,-2358"/>
<text text-anchor="middle" x="682" y="-2337.1" font-family="Courier,monospace" font-size="11.00">fUpload</text>
</a>
</g>
<!-- \\fSQLException -->
<g id="node31" class="node"><title>\\fSQLException</title>
<a xlink:href="php.flourish.fSQLException.html" xlink:title="fSQLException" target="_parent">
<polygon fill="none" stroke="black" points="734,-414 630,-414 630,-378 734,-378 734,-414"/>
<text text-anchor="middle" x="682" y="-393.1" font-family="Courier,monospace" font-size="11.00">fSQLException</text>
</a>
</g>
<!-- \\fSQLException&#45;&gt;\\fUnexpectedException -->
<g id="edge31" class="edge"><title>\\fSQLException&#45;&gt;\\fUnexpectedException</title>
<path fill="none" stroke="black" d="M629.711,-404.214C617.47,-408.215 605.303,-414.161 596,-423 529.326,-486.347 592.602,-555.746 524,-617 522.653,-618.203 521.251,-619.342 519.801,-620.421"/>
<polygon fill="none" stroke="black" points="517.61,-617.665 511.026,-625.966 521.349,-623.583 517.61,-617.665"/>
</g>
<!-- \\fORMFile -->
<g id="node32" class="node"><title>\\fORMFile</title>
<a xlink:href="php.flourish.fORMFile.html" xlink:title="fORMFile" target="_parent">
<polygon fill="none" stroke="black" points="717,-2250 647,-2250 647,-2214 717,-2214 717,-2250"/>
<text text-anchor="middle" x="682" y="-2229.1" font-family="Courier,monospace" font-size="11.00">fORMFile</text>
</a>
</g>
<!-- \\fUnbufferedResult -->
<g id="node33" class="node"><title>\\fUnbufferedResult</title>
<a xlink:href="php.flourish.fUnbufferedResult.html" xlink:title="fUnbufferedResult" target="_parent">
<polygon fill="none" stroke="black" points="747,-3654 617,-3654 617,-3618 747,-3618 747,-3654"/>
<text text-anchor="middle" x="682" y="-3633.1" font-family="Courier,monospace" font-size="11.00">fUnbufferedResult</text>
</a>
</g>
<!-- \\Iterator -->
<g id="node115" class="node"><title>\\Iterator</title>
<ellipse fill="none" stroke="black" cx="58" cy="-3016" rx="45.9619" ry="19.0919"/>
<text text-anchor="middle" x="58" y="-3012.9" font-family="Times Roman,serif" font-size="14.00" fill="gray">\\Iterator</text>
</g>
<!-- \\fUnbufferedResult&#45;&gt;\\Iterator -->
<g id="edge57" class="edge"><title>\\fUnbufferedResult&#45;&gt;\\Iterator</title>
<path fill="none" stroke="black" stroke-dasharray="1,5" d="M616.279,-3651.39C609.071,-3654.57 602.134,-3658.4 596,-3663 549.849,-3697.61 571.724,-3738.59 524,-3771 490.539,-3793.72 474.312,-3780.49 435,-3790"/>
<path fill="none" stroke="black" stroke-dasharray="1,5" d="M435,-3790C104.423,-3870.01 63.6619,-3196.22 58.6851,-3045.51"/>
<polygon fill="none" stroke="black" points="62.174,-3045.08 58.3747,-3035.19 55.1772,-3045.3 62.174,-3045.08"/>
</g>
<!-- \\fNoRemainingException -->
<g id="node34" class="node"><title>\\fNoRemainingException</title>
<a xlink:href="php.flourish.fNoRemainingException.html" xlink:title="fNoRemainingException" target="_parent">
<polygon fill="none" stroke="black" points="761,-2196 603,-2196 603,-2160 761,-2160 761,-2196"/>
<text text-anchor="middle" x="682" y="-2175.1" font-family="Courier,monospace" font-size="11.00">fNoRemainingException</text>
</a>
</g>
<!-- \\fExpectedException -->
<g id="node63" class="node"><title>\\fExpectedException</title>
<a xlink:href="php.flourish.fExpectedException.html" xlink:title="fExpectedException" target="_parent">
<polygon fill="none" stroke="black" points="504,-1386 366,-1386 366,-1350 504,-1350 504,-1386"/>
<text text-anchor="middle" x="435" y="-1365.1" font-family="Courier,monospace" font-size="11.00">fExpectedException</text>
</a>
</g>
<!-- \\fNoRemainingException&#45;&gt;\\fExpectedException -->
<g id="edge33" class="edge"><title>\\fNoRemainingException&#45;&gt;\\fExpectedException</title>
<path fill="none" stroke="black" d="M606.237,-2159.9C602.499,-2157.32 599.042,-2154.37 596,-2151 491.816,-2035.68 446.696,-1522.81 437.037,-1396.29"/>
<polygon fill="none" stroke="black" points="440.521,-1395.94 436.283,-1386.23 433.541,-1396.46 440.521,-1395.94"/>
</g>
<!-- \\fORMMoney -->
<g id="node36" class="node"><title>\\fORMMoney</title>
<a xlink:href="php.flourish.fORMMoney.html" xlink:title="fORMMoney" target="_parent">
<polygon fill="none" stroke="black" points="720,-2088 644,-2088 644,-2052 720,-2052 720,-2088"/>
<text text-anchor="middle" x="682" y="-2067.1" font-family="Courier,monospace" font-size="11.00">fORMMoney</text>
</a>
</g>
<!-- \\fMailbox -->
<g id="node38" class="node"><title>\\fMailbox</title>
<a xlink:href="php.flourish.fMailbox.html" xlink:title="fMailbox" target="_parent">
<polygon fill="none" stroke="black" points="717,-2034 647,-2034 647,-1998 717,-1998 717,-2034"/>
<text text-anchor="middle" x="682" y="-2013.1" font-family="Courier,monospace" font-size="11.00">fMailbox</text>
</a>
</g>
<!-- \\fStatement -->
<g id="node39" class="node"><title>\\fStatement</title>
<a xlink:href="php.flourish.fStatement.html" xlink:title="fStatement" target="_parent">
<polygon fill="none" stroke="black" points="724,-1980 640,-1980 640,-1944 724,-1944 724,-1980"/>
<text text-anchor="middle" x="682" y="-1959.1" font-family="Courier,monospace" font-size="11.00">fStatement</text>
</a>
</g>
<!-- \\fBuffer -->
<g id="node40" class="node"><title>\\fBuffer</title>
<a xlink:href="php.flourish.fBuffer.html" xlink:title="fBuffer" target="_parent">
<polygon fill="none" stroke="black" points="714,-1926 650,-1926 650,-1890 714,-1890 714,-1926"/>
<text text-anchor="middle" x="682" y="-1905.1" font-family="Courier,monospace" font-size="11.00">fBuffer</text>
</a>
</g>
<!-- \\fSQLSchemaTranslation -->
<g id="node41" class="node"><title>\\fSQLSchemaTranslation</title>
<a xlink:href="php.flourish.fSQLSchemaTranslation.html" xlink:title="fSQLSchemaTranslation" target="_parent">
<polygon fill="none" stroke="black" points="761,-1872 603,-1872 603,-1836 761,-1836 761,-1872"/>
<text text-anchor="middle" x="682" y="-1851.1" font-family="Courier,monospace" font-size="11.00">fSQLSchemaTranslation</text>
</a>
</g>
<!-- \\fCryptography -->
<g id="node42" class="node"><title>\\fCryptography</title>
<a xlink:href="php.flourish.fCryptography.html" xlink:title="fCryptography" target="_parent">
<polygon fill="none" stroke="black" points="734,-1818 630,-1818 630,-1782 734,-1782 734,-1818"/>
<text text-anchor="middle" x="682" y="-1797.1" font-family="Courier,monospace" font-size="11.00">fCryptography</text>
</a>
</g>
<!-- \\fORMRelated -->
<g id="node43" class="node"><title>\\fORMRelated</title>
<a xlink:href="php.flourish.fORMRelated.html" xlink:title="fORMRelated" target="_parent">
<polygon fill="none" stroke="black" points="727,-1764 637,-1764 637,-1728 727,-1728 727,-1764"/>
<text text-anchor="middle" x="682" y="-1743.1" font-family="Courier,monospace" font-size="11.00">fORMRelated</text>
</a>
</g>
<!-- \\fUTF8 -->
<g id="node44" class="node"><title>\\fUTF8</title>
<a xlink:href="php.flourish.fUTF8.html" xlink:title="fUTF8" target="_parent">
<polygon fill="none" stroke="black" points="709,-1710 655,-1710 655,-1674 709,-1674 709,-1710"/>
<text text-anchor="middle" x="682" y="-1689.1" font-family="Courier,monospace" font-size="11.00">fUTF8</text>
</a>
</g>
<!-- \\fCRUD -->
<g id="node45" class="node"><title>\\fCRUD</title>
<a xlink:href="php.flourish.fCRUD.html" xlink:title="fCRUD" target="_parent">
<polygon fill="none" stroke="black" points="709,-1656 655,-1656 655,-1620 709,-1620 709,-1656"/>
<text text-anchor="middle" x="682" y="-1635.1" font-family="Courier,monospace" font-size="11.00">fCRUD</text>
</a>
</g>
<!-- \\fTime -->
<g id="node47" class="node"><title>\\fTime</title>
<a xlink:href="php.flourish.fTime.html" xlink:title="fTime" target="_parent">
<polygon fill="none" stroke="black" points="709,-1602 655,-1602 655,-1566 709,-1566 709,-1602"/>
<text text-anchor="middle" x="682" y="-1581.1" font-family="Courier,monospace" font-size="11.00">fTime</text>
</a>
</g>
<!-- \\fActiveRecord -->
<g id="node49" class="node"><title>\\fActiveRecord</title>
<a xlink:href="php.flourish.fActiveRecord.html" xlink:title="«abstract»&lt;br/&gt;fActiveRecord" target="_parent">
<polygon fill="none" stroke="black" points="734,-1548 630,-1548 630,-1512 734,-1512 734,-1548"/>
<text text-anchor="start" x="648" y="-1535.43" font-family="Courier,monospace" font-size="11.00">«abstract»</text>
<text text-anchor="start" x="638" y="-1522.23" font-family="Courier,monospace" font-size="11.00">fActiveRecord</text>
</a>
</g>
<!-- \\fORMValidation -->
<g id="node50" class="node"><title>\\fORMValidation</title>
<a xlink:href="php.flourish.fORMValidation.html" xlink:title="fORMValidation" target="_parent">
<polygon fill="none" stroke="black" points="737,-1494 627,-1494 627,-1458 737,-1458 737,-1494"/>
<text text-anchor="middle" x="682" y="-1473.1" font-family="Courier,monospace" font-size="11.00">fORMValidation</text>
</a>
</g>
<!-- \\fValidationException -->
<g id="node51" class="node"><title>\\fValidationException</title>
<a xlink:href="php.flourish.fValidationException.html" xlink:title="fValidationException" target="_parent">
<polygon fill="none" stroke="black" points="758,-2142 606,-2142 606,-2106 758,-2106 758,-2142"/>
<text text-anchor="middle" x="682" y="-2121.1" font-family="Courier,monospace" font-size="11.00">fValidationException</text>
</a>
</g>
<!-- \\fValidationException&#45;&gt;\\fExpectedException -->
<g id="edge35" class="edge"><title>\\fValidationException&#45;&gt;\\fExpectedException</title>
<path fill="none" stroke="black" d="M606.295,-2105.85C602.542,-2103.28 599.067,-2100.35 596,-2097 498.441,-1990.58 448.755,-1517.32 437.502,-1396.27"/>
<polygon fill="none" stroke="black" points="440.985,-1395.93 436.588,-1386.29 434.015,-1396.57 440.985,-1395.93"/>
</g>
<!-- \\fFile -->
<g id="node52" class="node"><title>\\fFile</title>
<a xlink:href="php.flourish.fFile.html" xlink:title="fFile" target="_parent">
<polygon fill="none" stroke="black" points="258,-3006 204,-3006 204,-2970 258,-2970 258,-3006"/>
<text text-anchor="middle" x="231" y="-2985.1" font-family="Courier,monospace" font-size="11.00">fFile</text>
</a>
</g>
<!-- \\fFile&#45;&gt;\\Iterator -->
<g id="edge59" class="edge"><title>\\fFile&#45;&gt;\\Iterator</title>
<path fill="none" stroke="black" stroke-dasharray="1,5" d="M203.969,-2992.38C179.209,-2996.38 141.848,-3002.43 111.124,-3007.4"/>
<polygon fill="none" stroke="black" points="110.299,-3003.99 100.986,-3009.04 111.417,-3010.9 110.299,-3003.99"/>
</g>
<!-- \\Countable -->
<g id="node118" class="node"><title>\\Countable</title>
<ellipse fill="none" stroke="black" cx="58" cy="-1760" rx="57.9828" ry="19.0919"/>
<text text-anchor="middle" x="58" y="-1756.9" font-family="Times Roman,serif" font-size="14.00" fill="gray">\\Countable</text>
</g>
<!-- \\fFile&#45;&gt;\\Countable -->
<g id="edge61" class="edge"><title>\\fFile&#45;&gt;\\Countable</title>
<path fill="none" stroke="black" stroke-dasharray="1,5" d="M228.42,-2969.69C209.039,-2832.11 86.3407,-1961.17 62.1416,-1789.4"/>
<polygon fill="none" stroke="black" points="65.5835,-1788.74 60.7226,-1779.33 58.6519,-1789.72 65.5835,-1788.74"/>
</g>
<!-- \\fNotFoundException -->
<g id="node53" class="node"><title>\\fNotFoundException</title>
<a xlink:href="php.flourish.fNotFoundException.html" xlink:title="fNotFoundException" target="_parent">
<polygon fill="none" stroke="black" points="751,-1440 613,-1440 613,-1404 751,-1404 751,-1440"/>
<text text-anchor="middle" x="682" y="-1419.1" font-family="Courier,monospace" font-size="11.00">fNotFoundException</text>
</a>
</g>
<!-- \\fNotFoundException&#45;&gt;\\fExpectedException -->
<g id="edge37" class="edge"><title>\\fNotFoundException&#45;&gt;\\fExpectedException</title>
<path fill="none" stroke="black" d="M612.868,-1406.89C582.219,-1400.19 545.987,-1392.26 514.249,-1385.33"/>
<polygon fill="none" stroke="black" points="514.632,-1381.83 504.115,-1383.11 513.137,-1388.67 514.632,-1381.83"/>
</g>
<!-- \\fCookie -->
<g id="node54" class="node"><title>\\fCookie</title>
<a xlink:href="php.flourish.fCookie.html" xlink:title="fCookie" target="_parent">
<polygon fill="none" stroke="black" points="714,-1332 650,-1332 650,-1296 714,-1296 714,-1332"/>
<text text-anchor="middle" x="682" y="-1311.1" font-family="Courier,monospace" font-size="11.00">fCookie</text>
</a>
</g>
<!-- \\fSQLTranslation -->
<g id="node55" class="node"><title>\\fSQLTranslation</title>
<a xlink:href="php.flourish.fSQLTranslation.html" xlink:title="fSQLTranslation" target="_parent">
<polygon fill="none" stroke="black" points="741,-1278 623,-1278 623,-1242 741,-1242 741,-1278"/>
<text text-anchor="middle" x="682" y="-1257.1" font-family="Courier,monospace" font-size="11.00">fSQLTranslation</text>
</a>
</g>
<!-- \\fSchema -->
<g id="node56" class="node"><title>\\fSchema</title>
<a xlink:href="php.flourish.fSchema.html" xlink:title="fSchema" target="_parent">
<polygon fill="none" stroke="black" points="714,-1224 650,-1224 650,-1188 714,-1188 714,-1224"/>
<text text-anchor="middle" x="682" y="-1203.1" font-family="Courier,monospace" font-size="11.00">fSchema</text>
</a>
</g>
<!-- \\fImage&#45;&gt;\\fFile -->
<g id="edge39" class="edge"><title>\\fImage&#45;&gt;\\fFile</title>
<path fill="none" stroke="black" d="M406.204,-2988C370.01,-2988 307.823,-2988 268.1,-2988"/>
<polygon fill="none" stroke="black" points="268.023,-2984.5 258.023,-2988 268.023,-2991.5 268.023,-2984.5"/>
</g>
<!-- \\fAuthorizationException -->
<g id="node59" class="node"><title>\\fAuthorizationException</title>
<a xlink:href="php.flourish.fAuthorizationException.html" xlink:title="fAuthorizationException" target="_parent">
<polygon fill="none" stroke="black" points="768,-1386 596,-1386 596,-1350 768,-1350 768,-1386"/>
<text text-anchor="middle" x="682" y="-1365.1" font-family="Courier,monospace" font-size="11.00">fAuthorizationException</text>
</a>
</g>
<!-- \\fAuthorizationException&#45;&gt;\\fExpectedException -->
<g id="edge41" class="edge"><title>\\fAuthorizationException&#45;&gt;\\fExpectedException</title>
<path fill="none" stroke="black" d="M595.958,-1368C569.409,-1368 540.31,-1368 514.242,-1368"/>
<polygon fill="none" stroke="black" points="514.034,-1364.5 504.034,-1368 514.034,-1371.5 514.034,-1364.5"/>
</g>
<!-- \\fORMDate -->
<g id="node60" class="node"><title>\\fORMDate</title>
<a xlink:href="php.flourish.fORMDate.html" xlink:title="fORMDate" target="_parent">
<polygon fill="none" stroke="black" points="717,-1116 647,-1116 647,-1080 717,-1080 717,-1116"/>
<text text-anchor="middle" x="682" y="-1095.1" font-family="Courier,monospace" font-size="11.00">fORMDate</text>
</a>
</g>
<!-- \\fORM -->
<g id="node61" class="node"><title>\\fORM</title>
<a xlink:href="php.flourish.fORM.html" xlink:title="fORM" target="_parent">
<polygon fill="none" stroke="black" points="709,-1062 655,-1062 655,-1026 709,-1026 709,-1062"/>
<text text-anchor="middle" x="682" y="-1041.1" font-family="Courier,monospace" font-size="11.00">fORM</text>
</a>
</g>
<!-- \\fTemplating -->
<g id="node62" class="node"><title>\\fTemplating</title>
<a xlink:href="php.flourish.fTemplating.html" xlink:title="fTemplating" target="_parent">
<polygon fill="none" stroke="black" points="727,-1008 637,-1008 637,-972 727,-972 727,-1008"/>
<text text-anchor="middle" x="682" y="-987.1" font-family="Courier,monospace" font-size="11.00">fTemplating</text>
</a>
</g>
<!-- \\fExpectedException&#45;&gt;\\fException -->
<g id="edge43" class="edge"><title>\\fExpectedException&#45;&gt;\\fException</title>
<path fill="none" stroke="black" d="M422.546,-1349.87C387.905,-1299.44 290.281,-1157.31 249.384,-1097.76"/>
<polygon fill="none" stroke="black" points="252.097,-1095.53 243.55,-1089.27 246.327,-1099.5 252.097,-1095.53"/>
</g>
<!-- \\fEnvironmentException -->
<g id="node64" class="node"><title>\\fEnvironmentException</title>
<a xlink:href="php.flourish.fEnvironmentException.html" xlink:title="fEnvironmentException" target="_parent">
<polygon fill="none" stroke="black" points="761,-360 603,-360 603,-324 761,-324 761,-360"/>
<text text-anchor="middle" x="682" y="-339.1" font-family="Courier,monospace" font-size="11.00">fEnvironmentException</text>
</a>
</g>
<!-- \\fEnvironmentException&#45;&gt;\\fUnexpectedException -->
<g id="edge45" class="edge"><title>\\fEnvironmentException&#45;&gt;\\fUnexpectedException</title>
<path fill="none" stroke="black" d="M606.943,-360.129C602.979,-362.705 599.284,-365.645 596,-369 515.726,-451.031 606.773,-537.491 524,-617 522.698,-618.251 521.336,-619.434 519.923,-620.553"/>
<polygon fill="none" stroke="black" points="517.702,-617.827 511.322,-626.285 521.584,-623.652 517.702,-617.827"/>
</g>
<!-- \\fResult -->
<g id="node65" class="node"><title>\\fResult</title>
<a xlink:href="php.flourish.fResult.html" xlink:title="fResult" target="_parent">
<polygon fill="none" stroke="black" points="714,-3708 650,-3708 650,-3672 714,-3672 714,-3708"/>
<text text-anchor="middle" x="682" y="-3687.1" font-family="Courier,monospace" font-size="11.00">fResult</text>
</a>
</g>
<!-- \\fResult&#45;&gt;\\Iterator -->
<g id="edge63" class="edge"><title>\\fResult&#45;&gt;\\Iterator</title>
<path fill="none" stroke="black" stroke-dasharray="1,5" d="M654.911,-3708.08C610.918,-3735.75 520.255,-3785.86 435,-3790"/>
</g>
<!-- \\fDate -->
<g id="node66" class="node"><title>\\fDate</title>
<a xlink:href="php.flourish.fDate.html" xlink:title="fDate" target="_parent">
<polygon fill="none" stroke="black" points="709,-846 655,-846 655,-810 709,-810 709,-846"/>
<text text-anchor="middle" x="682" y="-825.1" font-family="Courier,monospace" font-size="11.00">fDate</text>
</a>
</g>
<!-- \\fConnectivityException -->
<g id="node67" class="node"><title>\\fConnectivityException</title>
<a xlink:href="php.flourish.fConnectivityException.html" xlink:title="fConnectivityException" target="_parent">
<polygon fill="none" stroke="black" points="764,-900 600,-900 600,-864 764,-864 764,-900"/>
<text text-anchor="middle" x="682" y="-879.1" font-family="Courier,monospace" font-size="11.00">fConnectivityException</text>
</a>
</g>
<!-- \\fConnectivityException&#45;&gt;\\fUnexpectedException -->
<g id="edge47" class="edge"><title>\\fConnectivityException&#45;&gt;\\fUnexpectedException</title>
<path fill="none" stroke="black" d="M611.237,-863.887C605.875,-861.298 600.722,-858.351 596,-855 524.428,-804.202 471.275,-711.816 447.995,-666.106"/>
<polygon fill="none" stroke="black" points="451.09,-664.469 443.485,-657.092 444.83,-667.601 451.09,-664.469"/>
</g>
<!-- \\fSMTP -->
<g id="node69" class="node"><title>\\fSMTP</title>
<a xlink:href="php.flourish.fSMTP.html" xlink:title="fSMTP" target="_parent">
<polygon fill="none" stroke="black" points="709,-738 655,-738 655,-702 709,-702 709,-738"/>
<text text-anchor="middle" x="682" y="-717.1" font-family="Courier,monospace" font-size="11.00">fSMTP</text>
</a>
</g>
<!-- \\fORMOrdering -->
<g id="node70" class="node"><title>\\fORMOrdering</title>
<a xlink:href="php.flourish.fORMOrdering.html" xlink:title="fORMOrdering" target="_parent">
<polygon fill="none" stroke="black" points="731,-684 633,-684 633,-648 731,-648 731,-684"/>
<text text-anchor="middle" x="682" y="-663.1" font-family="Courier,monospace" font-size="11.00">fORMOrdering</text>
</a>
</g>
<!-- \\fORMSchema -->
<g id="node72" class="node"><title>\\fORMSchema</title>
<a xlink:href="php.flourish.fORMSchema.html" xlink:title="fORMSchema" target="_parent">
<polygon fill="none" stroke="black" points="724,-630 640,-630 640,-594 724,-594 724,-630"/>
<text text-anchor="middle" x="682" y="-609.1" font-family="Courier,monospace" font-size="11.00">fORMSchema</text>
</a>
</g>
<!-- \\fORMDatabase -->
<g id="node74" class="node"><title>\\fORMDatabase</title>
<a xlink:href="php.flourish.fORMDatabase.html" xlink:title="fORMDatabase" target="_parent">
<polygon fill="none" stroke="black" points="731,-576 633,-576 633,-540 731,-540 731,-576"/>
<text text-anchor="middle" x="682" y="-555.1" font-family="Courier,monospace" font-size="11.00">fORMDatabase</text>
</a>
</g>
<!-- \\fNoRowsException -->
<g id="node75" class="node"><title>\\fNoRowsException</title>
<a xlink:href="php.flourish.fNoRowsException.html" xlink:title="fNoRowsException" target="_parent">
<polygon fill="none" stroke="black" points="744,-954 620,-954 620,-918 744,-918 744,-954"/>
<text text-anchor="middle" x="682" y="-933.1" font-family="Courier,monospace" font-size="11.00">fNoRowsException</text>
</a>
</g>
<!-- \\fNoRowsException&#45;&gt;\\fExpectedException -->
<g id="edge49" class="edge"><title>\\fNoRowsException&#45;&gt;\\fExpectedException</title>
<path fill="none" stroke="black" d="M619.18,-948.387C610.704,-952.061 602.652,-956.824 596,-963 482.077,-1068.77 447.314,-1265.63 438.027,-1339.24"/>
<polygon fill="none" stroke="black" points="434.504,-1339.23 436.791,-1349.57 441.454,-1340.06 434.504,-1339.23"/>
</g>
<!-- \\fEmail -->
<g id="node76" class="node"><title>\\fEmail</title>
<a xlink:href="php.flourish.fEmail.html" xlink:title="fEmail" target="_parent">
<polygon fill="none" stroke="black" points="710,-468 654,-468 654,-432 710,-432 710,-468"/>
<text text-anchor="middle" x="682" y="-447.1" font-family="Courier,monospace" font-size="11.00">fEmail</text>
</a>
</g>
<!-- \\fProgrammerException -->
<g id="node77" class="node"><title>\\fProgrammerException</title>
<a xlink:href="php.flourish.fProgrammerException.html" xlink:title="fProgrammerException" target="_parent">
<polygon fill="none" stroke="black" points="758,-792 606,-792 606,-756 758,-756 758,-792"/>
<text text-anchor="middle" x="682" y="-771.1" font-family="Courier,monospace" font-size="11.00">fProgrammerException</text>
</a>
</g>
<!-- \\fProgrammerException&#45;&gt;\\fUnexpectedException -->
<g id="edge51" class="edge"><title>\\fProgrammerException&#45;&gt;\\fUnexpectedException</title>
<path fill="none" stroke="black" d="M617.348,-755.929C610.028,-753.231 602.772,-750.251 596,-747 547.602,-723.768 497.013,-687.56 465.751,-663.564"/>
<polygon fill="none" stroke="black" points="467.512,-660.501 457.464,-657.141 463.224,-666.033 467.512,-660.501"/>
</g>
<!-- \\fEmptySetException -->
<g id="node78" class="node"><title>\\fEmptySetException</title>
<a xlink:href="php.flourish.fEmptySetException.html" xlink:title="fEmptySetException" target="_parent">
<polygon fill="none" stroke="black" points="751,-1170 613,-1170 613,-1134 751,-1134 751,-1170"/>
<text text-anchor="middle" x="682" y="-1149.1" font-family="Courier,monospace" font-size="11.00">fEmptySetException</text>
</a>
</g>
<!-- \\fEmptySetException&#45;&gt;\\fExpectedException -->
<g id="edge53" class="edge"><title>\\fEmptySetException&#45;&gt;\\fExpectedException</title>
<path fill="none" stroke="black" d="M612.791,-1169.85C606.908,-1172.51 601.22,-1175.54 596,-1179 530.171,-1222.57 476.129,-1300.54 450.701,-1341.38"/>
<polygon fill="none" stroke="black" points="447.672,-1339.62 445.43,-1349.98 453.64,-1343.28 447.672,-1339.62"/>
</g>
<!-- \\fMoney -->
<g id="node79" class="node"><title>\\fMoney</title>
<a xlink:href="php.flourish.fMoney.html" xlink:title="fMoney" target="_parent">
<polygon fill="none" stroke="black" points="710,-306 654,-306 654,-270 710,-270 710,-306"/>
<text text-anchor="middle" x="682" y="-285.1" font-family="Courier,monospace" font-size="11.00">fMoney</text>
</a>
</g>
<!-- \\fDirectory -->
<g id="node81" class="node"><title>\\fDirectory</title>
<a xlink:href="php.flourish.fDirectory.html" xlink:title="fDirectory" target="_parent">
<polygon fill="none" stroke="black" points="724,-252 640,-252 640,-216 724,-216 724,-252"/>
<text text-anchor="middle" x="682" y="-231.1" font-family="Courier,monospace" font-size="11.00">fDirectory</text>
</a>
</g>
<!-- \\fDatabase -->
<g id="node82" class="node"><title>\\fDatabase</title>
<a xlink:href="php.flourish.fDatabase.html" xlink:title="fDatabase" target="_parent">
<polygon fill="none" stroke="black" points="720,-198 644,-198 644,-162 720,-162 720,-198"/>
<text text-anchor="middle" x="682" y="-177.1" font-family="Courier,monospace" font-size="11.00">fDatabase</text>
</a>
</g>
<!-- \\fMessaging -->
<g id="node83" class="node"><title>\\fMessaging</title>
<a xlink:href="php.flourish.fMessaging.html" xlink:title="fMessaging" target="_parent">
<polygon fill="none" stroke="black" points="724,-144 640,-144 640,-108 724,-108 724,-144"/>
<text text-anchor="middle" x="682" y="-123.1" font-family="Courier,monospace" font-size="11.00">fMessaging</text>
</a>
</g>
<!-- \\fRecordSet -->
<g id="node84" class="node"><title>\\fRecordSet</title>
<a xlink:href="php.flourish.fRecordSet.html" xlink:title="fRecordSet" target="_parent">
<polygon fill="none" stroke="black" points="724,-90 640,-90 640,-54 724,-54 724,-90"/>
<text text-anchor="middle" x="682" y="-69.1" font-family="Courier,monospace" font-size="11.00">fRecordSet</text>
</a>
</g>
<!-- \\fRecordSet&#45;&gt;\\ArrayAccess -->
<g id="edge67" class="edge"><title>\\fRecordSet&#45;&gt;\\ArrayAccess</title>
<path fill="none" stroke="black" stroke-dasharray="1,5" d="M639.616,-74.9827C623.34,-78.4305 606.231,-85.3513 596,-99 475.319,-259.997 648.772,-3562.15 524,-3720 520.133,-3724.89 515.372,-3728.83 510.081,-3731.98"/>
<polygon fill="none" stroke="black" points="508.161,-3729.03 500.74,-3736.59 511.257,-3735.31 508.161,-3729.03"/>
</g>
<!-- \\fRecordSet&#45;&gt;\\Countable -->
<g id="edge69" class="edge"><title>\\fRecordSet&#45;&gt;\\Countable</title>
<path fill="none" stroke="black" stroke-dasharray="1,5" d="M639.652,-78.136C624.523,-82.0592 608.216,-88.4839 596,-99 248.223,-398.391 301.436,-601.465 180,-1044 108.277,-1305.37 70.9887,-1632.59 60.8731,-1730.83"/>
<polygon fill="none" stroke="black" points="57.3791,-1730.59 59.8496,-1740.89 64.3432,-1731.3 57.3791,-1730.59"/>
</g>
<!-- \\IteratorAggregate -->
<g id="node121" class="node"><title>\\IteratorAggregate</title>
<ellipse fill="none" stroke="black" cx="435" cy="-19" rx="89.0955" ry="19.0919"/>
<text text-anchor="middle" x="435" y="-15.9" font-family="Times Roman,serif" font-size="14.00" fill="gray">\\IteratorAggregate</text>
</g>
<!-- \\fRecordSet&#45;&gt;\\IteratorAggregate -->
<g id="edge65" class="edge"><title>\\fRecordSet&#45;&gt;\\IteratorAggregate</title>
<path fill="none" stroke="black" stroke-dasharray="1,5" d="M639.82,-62.9492C603.644,-55.1869 550.712,-43.8288 507.72,-34.6039"/>
<polygon fill="none" stroke="black" points="508.379,-31.1656 497.867,-32.4897 506.91,-38.0099 508.379,-31.1656"/>
</g>
</g>
</svg>
