<?xml version="1.0" encoding="UTF-8" standalone="no"?>
<!DOCTYPE svg PUBLIC "-//W3C//DTD SVG 1.1//EN"
 "http://www.w3.org/Graphics/SVG/1.1/DTD/svg11.dtd">
<!-- Generated by graphviz version 2.26.3 (20100126.1600)
 -->
<!-- Title: G Pages: 1 -->
<svg width="816pt" height="3594pt"
 viewBox="0.00 0.00 816.00 3594.22" xmlns="http://www.w3.org/2000/svg" xmlns:xlink="http://www.w3.org/1999/xlink">
<g id="graph1" class="graph" transform="scale(1 1) rotate(0) translate(4 3590.22)">
<title>G</title>
<polygon fill="white" stroke="white" points="-4,5 -4,-3590.22 813,-3590.22 813,5 -4,5"/>
<g id="graph2" class="cluster"><title>cluster_default</title>
<polyline fill="none" stroke="none" points="201,-178.216 788,-178.216 "/>
<path fill="none" stroke="none" d="M788,-178.216C794,-178.216 800,-184.216 800,-190.216"/>
<polyline fill="none" stroke="none" points="800,-190.216 800,-3566.22 "/>
<path fill="none" stroke="none" d="M800,-3566.22C800,-3572.22 794,-3578.22 788,-3578.22"/>
<polyline fill="none" stroke="none" points="788,-3578.22 201,-3578.22 "/>
<path fill="none" stroke="none" d="M201,-3578.22C195,-3578.22 189,-3572.22 189,-3566.22"/>
<polyline fill="none" stroke="none" points="189,-3566.22 189,-190.216 "/>
<path fill="none" stroke="none" d="M189,-190.216C189,-184.216 195,-178.216 201,-178.216"/>
</g>
<!-- \\fException -->
<g id="node2" class="node"><title>\\fException</title>
<a xlink:href="fException.html" xlink:title="«abstract»&lt;br/&gt;fException" target="_parent">
<polygon fill="none" stroke="black" points="282,-2247.22 198,-2247.22 198,-2211.22 282,-2211.22 282,-2247.22"/>
<text text-anchor="start" x="206" y="-2234.65" font-family="Courier,monospace" font-size="11.00">«abstract»</text>
<text text-anchor="start" x="206" y="-2221.45" font-family="Courier,monospace" font-size="11.00">fException</text>
</a>
</g>
<!-- \\Exception -->
<g id="node70" class="node"><title>\\Exception</title>
<ellipse fill="none" stroke="black" cx="55" cy="-2229.22" rx="55.1543" ry="19.0919"/>
<text text-anchor="middle" x="55" y="-2226.12" font-family="Times Roman,serif" font-size="14.00" fill="gray">\Exception</text>
</g>
<!-- \\fException&#45;&gt;\\Exception -->
<g id="edge3" class="edge"><title>\\fException&#45;&gt;\\Exception</title>
<path fill="none" stroke="black" d="M197.092,-2229.22C174.389,-2229.22 146.027,-2229.22 120.626,-2229.22"/>
<polygon fill="none" stroke="black" points="120.318,-2225.72 110.318,-2229.22 120.318,-2232.72 120.318,-2225.72"/>
</g>
<!-- \\fUnexpectedException -->
<g id="node3" class="node"><title>\\fUnexpectedException</title>
<a xlink:href="fUnexpectedException.html" xlink:title="fUnexpectedException" target="_parent">
<polygon fill="none" stroke="black" points="535,-2868.22 383,-2868.22 383,-2832.22 535,-2832.22 535,-2868.22"/>
<text text-anchor="middle" x="459" y="-2847.32" font-family="Courier,monospace" font-size="11.00">fUnexpectedException</text>
</a>
</g>
<!-- \\fUnexpectedException&#45;&gt;\\fException -->
<g id="edge5" class="edge"><title>\\fUnexpectedException&#45;&gt;\\fException</title>
<path fill="none" stroke="black" d="M452.564,-2831.97C421.556,-2744.04 287.519,-2363.96 249.869,-2257.2"/>
<polygon fill="none" stroke="black" points="253.063,-2255.73 246.436,-2247.47 246.461,-2258.06 253.063,-2255.73"/>
</g>
<!-- \\fURL -->
<g id="node4" class="node"><title>\\fURL</title>
<a xlink:href="fURL.html" xlink:title="fURL" target="_parent">
<polygon fill="none" stroke="black" points="733,-3570.22 679,-3570.22 679,-3534.22 733,-3534.22 733,-3570.22"/>
<text text-anchor="middle" x="706" y="-3549.32" font-family="Courier,monospace" font-size="11.00">fURL</text>
</a>
</g>
<!-- \\fXML -->
<g id="node5" class="node"><title>\\fXML</title>
<a xlink:href="fXML.html" xlink:title="fXML" target="_parent">
<polygon fill="none" stroke="black" points="733,-708.216 679,-708.216 679,-672.216 733,-672.216 733,-708.216"/>
<text text-anchor="middle" x="706" y="-687.316" font-family="Courier,monospace" font-size="11.00">fXML</text>
</a>
</g>
<!-- \\ArrayAccess -->
<g id="node85" class="node"><title>\\ArrayAccess</title>
<ellipse fill="none" stroke="black" cx="459" cy="-151.216" rx="68.7979" ry="19.0919"/>
<text text-anchor="middle" x="459" y="-148.116" font-family="Times Roman,serif" font-size="14.00" fill="gray">\\ArrayAccess</text>
</g>
<!-- \\fXML&#45;&gt;\\ArrayAccess -->
<g id="edge31" class="edge"><title>\\fXML&#45;&gt;\\ArrayAccess</title>
<path fill="none" stroke="black" stroke-dasharray="1,5" d="M678.607,-688.979C659.307,-686.579 634.424,-680.12 620,-663.216 477.41,-496.106 694.83,-337.613 548,-174.216 543.73,-169.464 538.619,-165.636 533.035,-162.559"/>
<polygon fill="none" stroke="black" points="534.465,-159.364 523.922,-158.317 531.511,-165.71 534.465,-159.364"/>
</g>
<!-- \\fValidation -->
<g id="node6" class="node"><title>\\fValidation</title>
<a xlink:href="fValidation.html" xlink:title="fValidation" target="_parent">
<polygon fill="none" stroke="black" points="751,-3462.22 661,-3462.22 661,-3426.22 751,-3426.22 751,-3462.22"/>
<text text-anchor="middle" x="706" y="-3441.32" font-family="Courier,monospace" font-size="11.00">fValidation</text>
</a>
</g>
<!-- \\fCore -->
<g id="node7" class="node"><title>\\fCore</title>
<a xlink:href="fCore.html" xlink:title="fCore" target="_parent">
<polygon fill="none" stroke="black" points="733,-3408.22 679,-3408.22 679,-3372.22 733,-3372.22 733,-3408.22"/>
<text text-anchor="middle" x="706" y="-3387.32" font-family="Courier,monospace" font-size="11.00">fCore</text>
</a>
</g>
<!-- \\fSession -->
<g id="node8" class="node"><title>\\fSession</title>
<a xlink:href="fSession.html" xlink:title="fSession" target="_parent">
<polygon fill="none" stroke="black" points="741,-3354.22 671,-3354.22 671,-3318.22 741,-3318.22 741,-3354.22"/>
<text text-anchor="middle" x="706" y="-3333.32" font-family="Courier,monospace" font-size="11.00">fSession</text>
</a>
</g>
<!-- \\fHTML -->
<g id="node9" class="node"><title>\\fHTML</title>
<a xlink:href="fHTML.html" xlink:title="fHTML" target="_parent">
<polygon fill="none" stroke="black" points="733,-3300.22 679,-3300.22 679,-3264.22 733,-3264.22 733,-3300.22"/>
<text text-anchor="middle" x="706" y="-3279.32" font-family="Courier,monospace" font-size="11.00">fHTML</text>
</a>
</g>
<!-- \\fORMColumn -->
<g id="node10" class="node"><title>\\fORMColumn</title>
<a xlink:href="fORMColumn.html" xlink:title="fORMColumn" target="_parent">
<polygon fill="none" stroke="black" points="748,-3246.22 664,-3246.22 664,-3210.22 748,-3210.22 748,-3246.22"/>
<text text-anchor="middle" x="706" y="-3225.32" font-family="Courier,monospace" font-size="11.00">fORMColumn</text>
</a>
</g>
<!-- \\fText -->
<g id="node11" class="node"><title>\\fText</title>
<a xlink:href="fText.html" xlink:title="fText" target="_parent">
<polygon fill="none" stroke="black" points="733,-3192.22 679,-3192.22 679,-3156.22 733,-3156.22 733,-3192.22"/>
<text text-anchor="middle" x="706" y="-3171.32" font-family="Courier,monospace" font-size="11.00">fText</text>
</a>
</g>
<!-- \\fFilesystem -->
<g id="node12" class="node"><title>\\fFilesystem</title>
<a xlink:href="fFilesystem.html" xlink:title="fFilesystem" target="_parent">
<polygon fill="none" stroke="black" points="751,-3138.22 661,-3138.22 661,-3102.22 751,-3102.22 751,-3138.22"/>
<text text-anchor="middle" x="706" y="-3117.32" font-family="Courier,monospace" font-size="11.00">fFilesystem</text>
</a>
</g>
<!-- \\fPagination -->
<g id="node13" class="node"><title>\\fPagination</title>
<a xlink:href="fPagination.html" xlink:title="fPagination" target="_parent">
<polygon fill="none" stroke="black" points="751,-3084.22 661,-3084.22 661,-3048.22 751,-3048.22 751,-3084.22"/>
<text text-anchor="middle" x="706" y="-3063.32" font-family="Courier,monospace" font-size="11.00">fPagination</text>
</a>
</g>
<!-- \\fUpload -->
<g id="node14" class="node"><title>\\fUpload</title>
<a xlink:href="fUpload.html" xlink:title="fUpload" target="_parent">
<polygon fill="none" stroke="black" points="738,-3030.22 674,-3030.22 674,-2994.22 738,-2994.22 738,-3030.22"/>
<text text-anchor="middle" x="706" y="-3009.32" font-family="Courier,monospace" font-size="11.00">fUpload</text>
</a>
</g>
<!-- \\fSQLException -->
<g id="node15" class="node"><title>\\fSQLException</title>
<a xlink:href="fSQLException.html" xlink:title="fSQLException" target="_parent">
<polygon fill="none" stroke="black" points="758,-2814.22 654,-2814.22 654,-2778.22 758,-2778.22 758,-2814.22"/>
<text text-anchor="middle" x="706" y="-2793.32" font-family="Courier,monospace" font-size="11.00">fSQLException</text>
</a>
</g>
<!-- \\fSQLException&#45;&gt;\\fUnexpectedException -->
<g id="edge7" class="edge"><title>\\fSQLException&#45;&gt;\\fUnexpectedException</title>
<path fill="none" stroke="black" d="M653.919,-2807.6C622.482,-2814.48 581.636,-2823.4 545.463,-2831.31"/>
<polygon fill="none" stroke="black" points="544.417,-2827.96 535.396,-2833.51 545.912,-2834.8 544.417,-2827.96"/>
</g>
<!-- \\fORMFile -->
<g id="node16" class="node"><title>\\fORMFile</title>
<a xlink:href="fORMFile.html" xlink:title="fORMFile" target="_parent">
<polygon fill="none" stroke="black" points="741,-2922.22 671,-2922.22 671,-2886.22 741,-2886.22 741,-2922.22"/>
<text text-anchor="middle" x="706" y="-2901.32" font-family="Courier,monospace" font-size="11.00">fORMFile</text>
</a>
</g>
<!-- \\fUnbufferedResult -->
<g id="node17" class="node"><title>\\fUnbufferedResult</title>
<a xlink:href="fUnbufferedResult.html" xlink:title="fUnbufferedResult" target="_parent">
<polygon fill="none" stroke="black" points="771,-546.216 641,-546.216 641,-510.216 771,-510.216 771,-546.216"/>
<text text-anchor="middle" x="706" y="-525.316" font-family="Courier,monospace" font-size="11.00">fUnbufferedResult</text>
</a>
</g>
<!-- \\Iterator -->
<g id="node87" class="node"><title>\\Iterator</title>
<ellipse fill="none" stroke="black" cx="240" cy="-52.216" rx="45.9619" ry="19.0919"/>
<text text-anchor="middle" x="240" y="-49.116" font-family="Times Roman,serif" font-size="14.00" fill="gray">\\Iterator</text>
</g>
<!-- \\fUnbufferedResult&#45;&gt;\\Iterator -->
<g id="edge33" class="edge"><title>\\fUnbufferedResult&#45;&gt;\\Iterator</title>
<path fill="none" stroke="black" stroke-dasharray="1,5" d="M640.142,-516.294C632.509,-512.54 625.502,-507.63 620,-501.216 481.842,-340.148 693.564,-183.624 548,-29.216 520.255,0.214675 496.45,-25.4952 459,-10.216"/>
</g>
<!-- \\fNoRemainingException -->
<g id="node18" class="node"><title>\\fNoRemainingException</title>
<a xlink:href="fNoRemainingException.html" xlink:title="fNoRemainingException" target="_parent">
<polygon fill="none" stroke="black" points="785,-1626.22 627,-1626.22 627,-1590.22 785,-1590.22 785,-1626.22"/>
<text text-anchor="middle" x="706" y="-1605.32" font-family="Courier,monospace" font-size="11.00">fNoRemainingException</text>
</a>
</g>
<!-- \\fExpectedException -->
<g id="node47" class="node"><title>\\fExpectedException</title>
<a xlink:href="fExpectedException.html" xlink:title="fExpectedException" target="_parent">
<polygon fill="none" stroke="black" points="528,-1626.22 390,-1626.22 390,-1590.22 528,-1590.22 528,-1626.22"/>
<text text-anchor="middle" x="459" y="-1605.32" font-family="Courier,monospace" font-size="11.00">fExpectedException</text>
</a>
</g>
<!-- \\fNoRemainingException&#45;&gt;\\fExpectedException -->
<g id="edge9" class="edge"><title>\\fNoRemainingException&#45;&gt;\\fExpectedException</title>
<path fill="none" stroke="black" d="M626.828,-1608.22C598.552,-1608.22 566.701,-1608.22 538.405,-1608.22"/>
<polygon fill="none" stroke="black" points="538.154,-1604.72 528.154,-1608.22 538.154,-1611.72 538.154,-1604.72"/>
</g>
<!-- \\fCache -->
<g id="node19" class="node"><title>\\fCache</title>
<a xlink:href="fCache.html" xlink:title="fCache" target="_parent">
<polygon fill="none" stroke="black" points="734,-2760.22 678,-2760.22 678,-2724.22 734,-2724.22 734,-2760.22"/>
<text text-anchor="middle" x="706" y="-2739.32" font-family="Courier,monospace" font-size="11.00">fCache</text>
</a>
</g>
<!-- \\fORMMoney -->
<g id="node20" class="node"><title>\\fORMMoney</title>
<a xlink:href="fORMMoney.html" xlink:title="fORMMoney" target="_parent">
<polygon fill="none" stroke="black" points="744,-2706.22 668,-2706.22 668,-2670.22 744,-2670.22 744,-2706.22"/>
<text text-anchor="middle" x="706" y="-2685.32" font-family="Courier,monospace" font-size="11.00">fORMMoney</text>
</a>
</g>
<!-- \\fGrammar -->
<g id="node21" class="node"><title>\\fGrammar</title>
<a xlink:href="fGrammar.html" xlink:title="fGrammar" target="_parent">
<polygon fill="none" stroke="black" points="741,-2652.22 671,-2652.22 671,-2616.22 741,-2616.22 741,-2652.22"/>
<text text-anchor="middle" x="706" y="-2631.32" font-family="Courier,monospace" font-size="11.00">fGrammar</text>
</a>
</g>
<!-- \\fMailbox -->
<g id="node22" class="node"><title>\\fMailbox</title>
<a xlink:href="fMailbox.html" xlink:title="fMailbox" target="_parent">
<polygon fill="none" stroke="black" points="741,-2598.22 671,-2598.22 671,-2562.22 741,-2562.22 741,-2598.22"/>
<text text-anchor="middle" x="706" y="-2577.32" font-family="Courier,monospace" font-size="11.00">fMailbox</text>
</a>
</g>
<!-- \\fStatement -->
<g id="node23" class="node"><title>\\fStatement</title>
<a xlink:href="fStatement.html" xlink:title="fStatement" target="_parent">
<polygon fill="none" stroke="black" points="748,-2544.22 664,-2544.22 664,-2508.22 748,-2508.22 748,-2544.22"/>
<text text-anchor="middle" x="706" y="-2523.32" font-family="Courier,monospace" font-size="11.00">fStatement</text>
</a>
</g>
<!-- \\fBuffer -->
<g id="node24" class="node"><title>\\fBuffer</title>
<a xlink:href="fBuffer.html" xlink:title="fBuffer" target="_parent">
<polygon fill="none" stroke="black" points="738,-2490.22 674,-2490.22 674,-2454.22 738,-2454.22 738,-2490.22"/>
<text text-anchor="middle" x="706" y="-2469.32" font-family="Courier,monospace" font-size="11.00">fBuffer</text>
</a>
</g>
<!-- \\fSQLSchemaTranslation -->
<g id="node25" class="node"><title>\\fSQLSchemaTranslation</title>
<a xlink:href="fSQLSchemaTranslation.html" xlink:title="fSQLSchemaTranslation" target="_parent">
<polygon fill="none" stroke="black" points="785,-2436.22 627,-2436.22 627,-2400.22 785,-2400.22 785,-2436.22"/>
<text text-anchor="middle" x="706" y="-2415.32" font-family="Courier,monospace" font-size="11.00">fSQLSchemaTranslation</text>
</a>
</g>
<!-- \\fCryptography -->
<g id="node26" class="node"><title>\\fCryptography</title>
<a xlink:href="fCryptography.html" xlink:title="fCryptography" target="_parent">
<polygon fill="none" stroke="black" points="758,-2382.22 654,-2382.22 654,-2346.22 758,-2346.22 758,-2382.22"/>
<text text-anchor="middle" x="706" y="-2361.32" font-family="Courier,monospace" font-size="11.00">fCryptography</text>
</a>
</g>
<!-- \\fORMRelated -->
<g id="node27" class="node"><title>\\fORMRelated</title>
<a xlink:href="fORMRelated.html" xlink:title="fORMRelated" target="_parent">
<polygon fill="none" stroke="black" points="751,-2328.22 661,-2328.22 661,-2292.22 751,-2292.22 751,-2328.22"/>
<text text-anchor="middle" x="706" y="-2307.32" font-family="Courier,monospace" font-size="11.00">fORMRelated</text>
</a>
</g>
<!-- \\fUTF8 -->
<g id="node28" class="node"><title>\\fUTF8</title>
<a xlink:href="fUTF8.html" xlink:title="fUTF8" target="_parent">
<polygon fill="none" stroke="black" points="733,-2274.22 679,-2274.22 679,-2238.22 733,-2238.22 733,-2274.22"/>
<text text-anchor="middle" x="706" y="-2253.32" font-family="Courier,monospace" font-size="11.00">fUTF8</text>
</a>
</g>
<!-- \\fCRUD -->
<g id="node29" class="node"><title>\\fCRUD</title>
<a xlink:href="fCRUD.html" xlink:title="fCRUD" target="_parent">
<polygon fill="none" stroke="black" points="733,-2220.22 679,-2220.22 679,-2184.22 733,-2184.22 733,-2220.22"/>
<text text-anchor="middle" x="706" y="-2199.32" font-family="Courier,monospace" font-size="11.00">fCRUD</text>
</a>
</g>
<!-- \\fAuthorization -->
<g id="node30" class="node"><title>\\fAuthorization</title>
<a xlink:href="fAuthorization.html" xlink:title="fAuthorization" target="_parent">
<polygon fill="none" stroke="black" points="761,-2166.22 651,-2166.22 651,-2130.22 761,-2130.22 761,-2166.22"/>
<text text-anchor="middle" x="706" y="-2145.32" font-family="Courier,monospace" font-size="11.00">fAuthorization</text>
</a>
</g>
<!-- \\fTime -->
<g id="node31" class="node"><title>\\fTime</title>
<a xlink:href="fTime.html" xlink:title="fTime" target="_parent">
<polygon fill="none" stroke="black" points="733,-2112.22 679,-2112.22 679,-2076.22 733,-2076.22 733,-2112.22"/>
<text text-anchor="middle" x="706" y="-2091.32" font-family="Courier,monospace" font-size="11.00">fTime</text>
</a>
</g>
<!-- \\fRequest -->
<g id="node32" class="node"><title>\\fRequest</title>
<a xlink:href="fRequest.html" xlink:title="fRequest" target="_parent">
<polygon fill="none" stroke="black" points="741,-2058.22 671,-2058.22 671,-2022.22 741,-2022.22 741,-2058.22"/>
<text text-anchor="middle" x="706" y="-2037.32" font-family="Courier,monospace" font-size="11.00">fRequest</text>
</a>
</g>
<!-- \\fActiveRecord -->
<g id="node33" class="node"><title>\\fActiveRecord</title>
<a xlink:href="fActiveRecord.html" xlink:title="«abstract»&lt;br/&gt;fActiveRecord" target="_parent">
<polygon fill="none" stroke="black" points="758,-2004.22 654,-2004.22 654,-1968.22 758,-1968.22 758,-2004.22"/>
<text text-anchor="start" x="672" y="-1991.65" font-family="Courier,monospace" font-size="11.00">«abstract»</text>
<text text-anchor="start" x="662" y="-1978.45" font-family="Courier,monospace" font-size="11.00">fActiveRecord</text>
</a>
</g>
<!-- \\fORMValidation -->
<g id="node34" class="node"><title>\\fORMValidation</title>
<a xlink:href="fORMValidation.html" xlink:title="fORMValidation" target="_parent">
<polygon fill="none" stroke="black" points="761,-1950.22 651,-1950.22 651,-1914.22 761,-1914.22 761,-1950.22"/>
<text text-anchor="middle" x="706" y="-1929.32" font-family="Courier,monospace" font-size="11.00">fORMValidation</text>
</a>
</g>
<!-- \\fValidationException -->
<g id="node35" class="node"><title>\\fValidationException</title>
<a xlink:href="fValidationException.html" xlink:title="fValidationException" target="_parent">
<polygon fill="none" stroke="black" points="782,-1518.22 630,-1518.22 630,-1482.22 782,-1482.22 782,-1518.22"/>
<text text-anchor="middle" x="706" y="-1497.32" font-family="Courier,monospace" font-size="11.00">fValidationException</text>
</a>
</g>
<!-- \\fValidationException&#45;&gt;\\fExpectedException -->
<g id="edge11" class="edge"><title>\\fValidationException&#45;&gt;\\fExpectedException</title>
<path fill="none" stroke="black" d="M644.032,-1518.35C635.876,-1521.12 627.686,-1524.1 620,-1527.22 578.037,-1544.23 532.068,-1567.89 500.032,-1585.25"/>
<polygon fill="none" stroke="black" points="498.072,-1582.33 490.97,-1590.19 501.425,-1588.48 498.072,-1582.33"/>
</g>
<!-- \\fFile -->
<g id="node36" class="node"><title>\\fFile</title>
<a xlink:href="fFile.html" xlink:title="fFile" target="_parent">
<polygon fill="none" stroke="black" points="486,-224.216 432,-224.216 432,-188.216 486,-188.216 486,-224.216"/>
<text text-anchor="middle" x="459" y="-203.316" font-family="Courier,monospace" font-size="11.00">fFile</text>
</a>
</g>
<!-- \\fFile&#45;&gt;\\Iterator -->
<g id="edge35" class="edge"><title>\\fFile&#45;&gt;\\Iterator</title>
<path fill="none" stroke="black" stroke-dasharray="1,5" d="M431.602,-203.882C413.07,-201.282 388.666,-195.793 370,-184.216 327.927,-158.12 333.387,-133.841 298,-99.216 289.56,-90.9577 279.781,-82.6245 270.685,-75.3157"/>
<polygon fill="none" stroke="black" points="272.601,-72.369 262.582,-68.9231 268.265,-77.8647 272.601,-72.369"/>
</g>
<!-- \\Countable -->
<g id="node90" class="node"><title>\\Countable</title>
<ellipse fill="none" stroke="black" cx="240" cy="-127.216" rx="57.9828" ry="19.0919"/>
<text text-anchor="middle" x="240" y="-124.116" font-family="Times Roman,serif" font-size="14.00" fill="gray">\\Countable</text>
</g>
<!-- \\fFile&#45;&gt;\\Countable -->
<g id="edge37" class="edge"><title>\\fFile&#45;&gt;\\Countable</title>
<path fill="none" stroke="black" stroke-dasharray="1,5" d="M431.781,-200.754C413.981,-196.873 390.343,-191.134 370,-184.216 339.588,-173.875 306.442,-159.287 281.232,-147.458"/>
<polygon fill="none" stroke="black" points="282.516,-144.193 271.98,-143.074 279.518,-150.519 282.516,-144.193"/>
</g>
<!-- \\fNotFoundException -->
<g id="node37" class="node"><title>\\fNotFoundException</title>
<a xlink:href="fNotFoundException.html" xlink:title="fNotFoundException" target="_parent">
<polygon fill="none" stroke="black" points="775,-1302.22 637,-1302.22 637,-1266.22 775,-1266.22 775,-1302.22"/>
<text text-anchor="middle" x="706" y="-1281.32" font-family="Courier,monospace" font-size="11.00">fNotFoundException</text>
</a>
</g>
<!-- \\fNotFoundException&#45;&gt;\\fExpectedException -->
<g id="edge13" class="edge"><title>\\fNotFoundException&#45;&gt;\\fExpectedException</title>
<path fill="none" stroke="black" d="M636.819,-1300.51C630.796,-1303.5 625.073,-1307.04 620,-1311.22 530.537,-1384.92 483.251,-1521.84 466.34,-1580.43"/>
<polygon fill="none" stroke="black" points="462.956,-1579.54 463.619,-1590.11 469.695,-1581.43 462.956,-1579.54"/>
</g>
<!-- \\fCookie -->
<g id="node38" class="node"><title>\\fCookie</title>
<a xlink:href="fCookie.html" xlink:title="fCookie" target="_parent">
<polygon fill="none" stroke="black" points="738,-1788.22 674,-1788.22 674,-1752.22 738,-1752.22 738,-1788.22"/>
<text text-anchor="middle" x="706" y="-1767.32" font-family="Courier,monospace" font-size="11.00">fCookie</text>
</a>
</g>
<!-- \\fSQLTranslation -->
<g id="node39" class="node"><title>\\fSQLTranslation</title>
<a xlink:href="fSQLTranslation.html" xlink:title="fSQLTranslation" target="_parent">
<polygon fill="none" stroke="black" points="765,-1734.22 647,-1734.22 647,-1698.22 765,-1698.22 765,-1734.22"/>
<text text-anchor="middle" x="706" y="-1713.32" font-family="Courier,monospace" font-size="11.00">fSQLTranslation</text>
</a>
</g>
<!-- \\fSchema -->
<g id="node40" class="node"><title>\\fSchema</title>
<a xlink:href="fSchema.html" xlink:title="fSchema" target="_parent">
<polygon fill="none" stroke="black" points="738,-1680.22 674,-1680.22 674,-1644.22 738,-1644.22 738,-1680.22"/>
<text text-anchor="middle" x="706" y="-1659.32" font-family="Courier,monospace" font-size="11.00">fSchema</text>
</a>
</g>
<!-- \\fImage -->
<g id="node41" class="node"><title>\\fImage</title>
<a xlink:href="fImage.html" xlink:title="fImage" target="_parent">
<polygon fill="none" stroke="black" points="734,-1140.22 678,-1140.22 678,-1104.22 734,-1104.22 734,-1140.22"/>
<text text-anchor="middle" x="706" y="-1119.32" font-family="Courier,monospace" font-size="11.00">fImage</text>
</a>
</g>
<!-- \\fImage&#45;&gt;\\fFile -->
<g id="edge15" class="edge"><title>\\fImage&#45;&gt;\\fFile</title>
<path fill="none" stroke="black" d="M677.135,-1120.62C658.161,-1117.99 634.287,-1111.41 620,-1095.22 502.682,-962.227 467.002,-370.555 460.273,-234.276"/>
<polygon fill="none" stroke="black" points="463.766,-234.044 459.789,-224.224 456.774,-234.381 463.766,-234.044"/>
</g>
<!-- \\fJSON -->
<g id="node42" class="node"><title>\\fJSON</title>
<a xlink:href="fJSON.html" xlink:title="fJSON" target="_parent">
<polygon fill="none" stroke="black" points="733,-1572.22 679,-1572.22 679,-1536.22 733,-1536.22 733,-1572.22"/>
<text text-anchor="middle" x="706" y="-1551.32" font-family="Courier,monospace" font-size="11.00">fJSON</text>
</a>
</g>
<!-- \\fAuthorizationException -->
<g id="node43" class="node"><title>\\fAuthorizationException</title>
<a xlink:href="fAuthorizationException.html" xlink:title="fAuthorizationException" target="_parent">
<polygon fill="none" stroke="black" points="792,-1248.22 620,-1248.22 620,-1212.22 792,-1212.22 792,-1248.22"/>
<text text-anchor="middle" x="706" y="-1227.32" font-family="Courier,monospace" font-size="11.00">fAuthorizationException</text>
</a>
</g>
<!-- \\fAuthorizationException&#45;&gt;\\fExpectedException -->
<g id="edge17" class="edge"><title>\\fAuthorizationException&#45;&gt;\\fExpectedException</title>
<path fill="none" stroke="black" d="M632.324,-1248.45C627.918,-1251 623.757,-1253.9 620,-1257.22 518.525,-1346.66 476.995,-1513.15 463.953,-1579.68"/>
<polygon fill="none" stroke="black" points="460.452,-1579.35 462.034,-1589.83 467.331,-1580.65 460.452,-1579.35"/>
</g>
<!-- \\fORMDate -->
<g id="node44" class="node"><title>\\fORMDate</title>
<a xlink:href="fORMDate.html" xlink:title="fORMDate" target="_parent">
<polygon fill="none" stroke="black" points="741,-1464.22 671,-1464.22 671,-1428.22 741,-1428.22 741,-1464.22"/>
<text text-anchor="middle" x="706" y="-1443.32" font-family="Courier,monospace" font-size="11.00">fORMDate</text>
</a>
</g>
<!-- \\fORM -->
<g id="node45" class="node"><title>\\fORM</title>
<a xlink:href="fORM.html" xlink:title="fORM" target="_parent">
<polygon fill="none" stroke="black" points="733,-1410.22 679,-1410.22 679,-1374.22 733,-1374.22 733,-1410.22"/>
<text text-anchor="middle" x="706" y="-1389.32" font-family="Courier,monospace" font-size="11.00">fORM</text>
</a>
</g>
<!-- \\fTemplating -->
<g id="node46" class="node"><title>\\fTemplating</title>
<a xlink:href="fTemplating.html" xlink:title="fTemplating" target="_parent">
<polygon fill="none" stroke="black" points="751,-1356.22 661,-1356.22 661,-1320.22 751,-1320.22 751,-1356.22"/>
<text text-anchor="middle" x="706" y="-1335.32" font-family="Courier,monospace" font-size="11.00">fTemplating</text>
</a>
</g>
<!-- \\fExpectedException&#45;&gt;\\fException -->
<g id="edge19" class="edge"><title>\\fExpectedException&#45;&gt;\\fException</title>
<path fill="none" stroke="black" d="M456.383,-1626.34C443.028,-1716.59 379.907,-2116.68 298,-2207.22 296.002,-2209.42 293.758,-2211.41 291.346,-2213.2"/>
<polygon fill="none" stroke="black" points="289.306,-2210.35 282.605,-2218.55 292.961,-2216.32 289.306,-2210.35"/>
</g>
<!-- \\fEnvironmentException -->
<g id="node48" class="node"><title>\\fEnvironmentException</title>
<a xlink:href="fEnvironmentException.html" xlink:title="fEnvironmentException" target="_parent">
<polygon fill="none" stroke="black" points="785,-3516.22 627,-3516.22 627,-3480.22 785,-3480.22 785,-3516.22"/>
<text text-anchor="middle" x="706" y="-3495.32" font-family="Courier,monospace" font-size="11.00">fEnvironmentException</text>
</a>
</g>
<!-- \\fEnvironmentException&#45;&gt;\\fUnexpectedException -->
<g id="edge21" class="edge"><title>\\fEnvironmentException&#45;&gt;\\fUnexpectedException</title>
<path fill="none" stroke="black" d="M630.829,-3480.2C626.892,-3477.59 623.235,-3474.62 620,-3471.22 535.614,-3382.45 477.395,-2987.88 462.663,-2878.45"/>
<polygon fill="none" stroke="black" points="466.126,-2877.93 461.336,-2868.48 459.187,-2878.86 466.126,-2877.93"/>
</g>
<!-- \\fResult -->
<g id="node49" class="node"><title>\\fResult</title>
<a xlink:href="fResult.html" xlink:title="fResult" target="_parent">
<polygon fill="none" stroke="black" points="738,-222.216 674,-222.216 674,-186.216 738,-186.216 738,-222.216"/>
<text text-anchor="middle" x="706" y="-201.316" font-family="Courier,monospace" font-size="11.00">fResult</text>
</a>
</g>
<!-- \\fResult&#45;&gt;\\Iterator -->
<g id="edge39" class="edge"><title>\\fResult&#45;&gt;\\Iterator</title>
<path fill="none" stroke="black" stroke-dasharray="1,5" d="M695.311,-186.215C672.905,-150.179 617.312,-69.2117 548,-29.216 512.967,-9.00078 496.45,-25.4952 459,-10.216"/>
<path fill="none" stroke="black" stroke-dasharray="1,5" d="M459,-10.216C398.221,14.581 321.881,-11.8951 277.257,-32.6023"/>
<polygon fill="none" stroke="black" points="275.477,-29.5737 267.965,-37.0447 278.496,-35.889 275.477,-29.5737"/>
</g>
<!-- \\fDate -->
<g id="node50" class="node"><title>\\fDate</title>
<a xlink:href="fDate.html" xlink:title="fDate" target="_parent">
<polygon fill="none" stroke="black" points="733,-1194.22 679,-1194.22 679,-1158.22 733,-1158.22 733,-1194.22"/>
<text text-anchor="middle" x="706" y="-1173.32" font-family="Courier,monospace" font-size="11.00">fDate</text>
</a>
</g>
<!-- \\fConnectivityException -->
<g id="node51" class="node"><title>\\fConnectivityException</title>
<a xlink:href="fConnectivityException.html" xlink:title="fConnectivityException" target="_parent">
<polygon fill="none" stroke="black" points="788,-2976.22 624,-2976.22 624,-2940.22 788,-2940.22 788,-2976.22"/>
<text text-anchor="middle" x="706" y="-2955.32" font-family="Courier,monospace" font-size="11.00">fConnectivityException</text>
</a>
</g>
<!-- \\fConnectivityException&#45;&gt;\\fUnexpectedException -->
<g id="edge23" class="edge"><title>\\fConnectivityException&#45;&gt;\\fUnexpectedException</title>
<path fill="none" stroke="black" d="M644.032,-2940.09C635.876,-2937.32 627.686,-2934.33 620,-2931.22 578.037,-2914.2 532.068,-2890.54 500.032,-2873.18"/>
<polygon fill="none" stroke="black" points="501.425,-2869.96 490.97,-2868.24 498.072,-2876.1 501.425,-2869.96"/>
</g>
<!-- \\fORMJSON -->
<g id="node52" class="node"><title>\\fORMJSON</title>
<a xlink:href="fORMJSON.html" xlink:title="fORMJSON" target="_parent">
<polygon fill="none" stroke="black" points="741,-1086.22 671,-1086.22 671,-1050.22 741,-1050.22 741,-1086.22"/>
<text text-anchor="middle" x="706" y="-1065.32" font-family="Courier,monospace" font-size="11.00">fORMJSON</text>
</a>
</g>
<!-- \\fSMTP -->
<g id="node53" class="node"><title>\\fSMTP</title>
<a xlink:href="fSMTP.html" xlink:title="fSMTP" target="_parent">
<polygon fill="none" stroke="black" points="733,-1032.22 679,-1032.22 679,-996.216 733,-996.216 733,-1032.22"/>
<text text-anchor="middle" x="706" y="-1011.32" font-family="Courier,monospace" font-size="11.00">fSMTP</text>
</a>
</g>
<!-- \\fORMOrdering -->
<g id="node54" class="node"><title>\\fORMOrdering</title>
<a xlink:href="fORMOrdering.html" xlink:title="fORMOrdering" target="_parent">
<polygon fill="none" stroke="black" points="755,-978.216 657,-978.216 657,-942.216 755,-942.216 755,-978.216"/>
<text text-anchor="middle" x="706" y="-957.316" font-family="Courier,monospace" font-size="11.00">fORMOrdering</text>
</a>
</g>
<!-- \\fLoader -->
<g id="node55" class="node"><title>\\fLoader</title>
<a xlink:href="fLoader.html" xlink:title="fLoader" target="_parent">
<polygon fill="none" stroke="black" points="738,-924.216 674,-924.216 674,-888.216 738,-888.216 738,-924.216"/>
<text text-anchor="middle" x="706" y="-903.316" font-family="Courier,monospace" font-size="11.00">fLoader</text>
</a>
</g>
<!-- \\fORMSchema -->
<g id="node56" class="node"><title>\\fORMSchema</title>
<a xlink:href="fORMSchema.html" xlink:title="fORMSchema" target="_parent">
<polygon fill="none" stroke="black" points="748,-870.216 664,-870.216 664,-834.216 748,-834.216 748,-870.216"/>
<text text-anchor="middle" x="706" y="-849.316" font-family="Courier,monospace" font-size="11.00">fORMSchema</text>
</a>
</g>
<!-- \\fTimestamp -->
<g id="node57" class="node"><title>\\fTimestamp</title>
<a xlink:href="fTimestamp.html" xlink:title="fTimestamp" target="_parent">
<polygon fill="none" stroke="black" points="748,-816.216 664,-816.216 664,-780.216 748,-780.216 748,-816.216"/>
<text text-anchor="middle" x="706" y="-795.316" font-family="Courier,monospace" font-size="11.00">fTimestamp</text>
</a>
</g>
<!-- \\fORMDatabase -->
<g id="node58" class="node"><title>\\fORMDatabase</title>
<a xlink:href="fORMDatabase.html" xlink:title="fORMDatabase" target="_parent">
<polygon fill="none" stroke="black" points="755,-762.216 657,-762.216 657,-726.216 755,-726.216 755,-762.216"/>
<text text-anchor="middle" x="706" y="-741.316" font-family="Courier,monospace" font-size="11.00">fORMDatabase</text>
</a>
</g>
<!-- \\fNoRowsException -->
<g id="node59" class="node"><title>\\fNoRowsException</title>
<a xlink:href="fNoRowsException.html" xlink:title="fNoRowsException" target="_parent">
<polygon fill="none" stroke="black" points="768,-1896.22 644,-1896.22 644,-1860.22 768,-1860.22 768,-1896.22"/>
<text text-anchor="middle" x="706" y="-1875.32" font-family="Courier,monospace" font-size="11.00">fNoRowsException</text>
</a>
</g>
<!-- \\fNoRowsException&#45;&gt;\\fExpectedException -->
<g id="edge25" class="edge"><title>\\fNoRowsException&#45;&gt;\\fExpectedException</title>
<path fill="none" stroke="black" d="M643.369,-1864.17C635.058,-1860.74 627.003,-1856.48 620,-1851.22 542.654,-1793.03 491.018,-1686.16 469.845,-1635.82"/>
<polygon fill="none" stroke="black" points="473.065,-1634.45 466.018,-1626.54 466.593,-1637.12 473.065,-1634.45"/>
</g>
<!-- \\fEmail -->
<g id="node60" class="node"><title>\\fEmail</title>
<a xlink:href="fEmail.html" xlink:title="fEmail" target="_parent">
<polygon fill="none" stroke="black" points="734,-654.216 678,-654.216 678,-618.216 734,-618.216 734,-654.216"/>
<text text-anchor="middle" x="706" y="-633.316" font-family="Courier,monospace" font-size="11.00">fEmail</text>
</a>
</g>
<!-- \\fProgrammerException -->
<g id="node61" class="node"><title>\\fProgrammerException</title>
<a xlink:href="fProgrammerException.html" xlink:title="fProgrammerException" target="_parent">
<polygon fill="none" stroke="black" points="782,-2868.22 630,-2868.22 630,-2832.22 782,-2832.22 782,-2868.22"/>
<text text-anchor="middle" x="706" y="-2847.32" font-family="Courier,monospace" font-size="11.00">fProgrammerException</text>
</a>
</g>
<!-- \\fProgrammerException&#45;&gt;\\fUnexpectedException -->
<g id="edge27" class="edge"><title>\\fProgrammerException&#45;&gt;\\fUnexpectedException</title>
<path fill="none" stroke="black" d="M629.876,-2850.22C603.113,-2850.22 572.85,-2850.22 545.309,-2850.22"/>
<polygon fill="none" stroke="black" points="545.297,-2846.72 535.297,-2850.22 545.297,-2853.72 545.297,-2846.72"/>
</g>
<!-- \\fEmptySetException -->
<g id="node62" class="node"><title>\\fEmptySetException</title>
<a xlink:href="fEmptySetException.html" xlink:title="fEmptySetException" target="_parent">
<polygon fill="none" stroke="black" points="775,-1842.22 637,-1842.22 637,-1806.22 775,-1806.22 775,-1842.22"/>
<text text-anchor="middle" x="706" y="-1821.32" font-family="Courier,monospace" font-size="11.00">fEmptySetException</text>
</a>
</g>
<!-- \\fEmptySetException&#45;&gt;\\fExpectedException -->
<g id="edge29" class="edge"><title>\\fEmptySetException&#45;&gt;\\fExpectedException</title>
<path fill="none" stroke="black" d="M636.791,-1806.37C630.908,-1803.71 625.22,-1800.67 620,-1797.22 554.171,-1753.64 500.129,-1675.68 474.701,-1634.84"/>
<polygon fill="none" stroke="black" points="477.64,-1632.93 469.43,-1626.24 471.672,-1636.59 477.64,-1632.93"/>
</g>
<!-- \\fMoney -->
<g id="node63" class="node"><title>\\fMoney</title>
<a xlink:href="fMoney.html" xlink:title="fMoney" target="_parent">
<polygon fill="none" stroke="black" points="734,-492.216 678,-492.216 678,-456.216 734,-456.216 734,-492.216"/>
<text text-anchor="middle" x="706" y="-471.316" font-family="Courier,monospace" font-size="11.00">fMoney</text>
</a>
</g>
<!-- \\fNumber -->
<g id="node64" class="node"><title>\\fNumber</title>
<a xlink:href="fNumber.html" xlink:title="fNumber" target="_parent">
<polygon fill="none" stroke="black" points="738,-438.216 674,-438.216 674,-402.216 738,-402.216 738,-438.216"/>
<text text-anchor="middle" x="706" y="-417.316" font-family="Courier,monospace" font-size="11.00">fNumber</text>
</a>
</g>
<!-- \\fDirectory -->
<g id="node65" class="node"><title>\\fDirectory</title>
<a xlink:href="fDirectory.html" xlink:title="fDirectory" target="_parent">
<polygon fill="none" stroke="black" points="748,-384.216 664,-384.216 664,-348.216 748,-348.216 748,-384.216"/>
<text text-anchor="middle" x="706" y="-363.316" font-family="Courier,monospace" font-size="11.00">fDirectory</text>
</a>
</g>
<!-- \\fDatabase -->
<g id="node66" class="node"><title>\\fDatabase</title>
<a xlink:href="fDatabase.html" xlink:title="fDatabase" target="_parent">
<polygon fill="none" stroke="black" points="744,-330.216 668,-330.216 668,-294.216 744,-294.216 744,-330.216"/>
<text text-anchor="middle" x="706" y="-309.316" font-family="Courier,monospace" font-size="11.00">fDatabase</text>
</a>
</g>
<!-- \\fMessaging -->
<g id="node67" class="node"><title>\\fMessaging</title>
<a xlink:href="fMessaging.html" xlink:title="fMessaging" target="_parent">
<polygon fill="none" stroke="black" points="748,-276.216 664,-276.216 664,-240.216 748,-240.216 748,-276.216"/>
<text text-anchor="middle" x="706" y="-255.316" font-family="Courier,monospace" font-size="11.00">fMessaging</text>
</a>
</g>
<!-- \\fRecordSet -->
<g id="node68" class="node"><title>\\fRecordSet</title>
<a xlink:href="fRecordSet.html" xlink:title="fRecordSet" target="_parent">
<polygon fill="none" stroke="black" points="748,-600.216 664,-600.216 664,-564.216 748,-564.216 748,-600.216"/>
<text text-anchor="middle" x="706" y="-579.316" font-family="Courier,monospace" font-size="11.00">fRecordSet</text>
</a>
</g>
<!-- \\fRecordSet&#45;&gt;\\ArrayAccess -->
<g id="edge43" class="edge"><title>\\fRecordSet&#45;&gt;\\ArrayAccess</title>
<path fill="none" stroke="black" stroke-dasharray="1,5" d="M663.819,-578.142C647.974,-574.501 631.125,-567.731 620,-555.216 505.505,-426.419 665.762,-300.033 548,-174.216 543.634,-169.552 538.458,-165.784 532.831,-162.746"/>
<polygon fill="none" stroke="black" points="534.218,-159.532 523.669,-158.549 531.303,-165.896 534.218,-159.532"/>
</g>
<!-- \\fRecordSet&#45;&gt;\\Countable -->
<g id="edge45" class="edge"><title>\\fRecordSet&#45;&gt;\\Countable</title>
<path fill="none" stroke="black" stroke-dasharray="1,5" d="M663.681,-578.263C647.816,-574.64 630.989,-567.85 620,-555.216 492.258,-408.349 696.521,-249.032 548,-123.216 512.318,-92.9885 381.631,-105.93 302.408,-117.165"/>
<polygon fill="none" stroke="black" points="301.456,-113.766 292.061,-118.663 302.46,-120.693 301.456,-113.766"/>
</g>
<!-- \\IteratorAggregate -->
<g id="node93" class="node"><title>\\IteratorAggregate</title>
<ellipse fill="none" stroke="black" cx="459" cy="-57.216" rx="89.0955" ry="19.0919"/>
<text text-anchor="middle" x="459" y="-54.116" font-family="Times Roman,serif" font-size="14.00" fill="gray">\\IteratorAggregate</text>
</g>
<!-- \\fRecordSet&#45;&gt;\\IteratorAggregate -->
<g id="edge41" class="edge"><title>\\fRecordSet&#45;&gt;\\IteratorAggregate</title>
<path fill="none" stroke="black" stroke-dasharray="1,5" d="M663.607,-578.328C647.731,-574.713 630.916,-567.913 620,-555.216 483.666,-396.634 680.257,-252.213 548,-90.216 543.271,-84.4238 537.422,-79.6481 531,-75.7106"/>
<polygon fill="none" stroke="black" points="532.403,-72.4913 521.937,-70.844 529.091,-78.6584 532.403,-72.4913"/>
</g>
</g>
</svg>
